<svg width="107" height="48" viewBox="0 0 107 48" fill="none" xmlns="http://www.w3.org/2000/svg">
<path d="M5.78887 24.7475L0.125519 42.1151C0.0423614 42.3701 0 42.6366 0 42.9049C0 45.7188 2.28117 48 5.09513 48H101C104.314 48 107 45.3137 107 42V15.5C107 13.8431 105.657 12.5 104 12.5H101.733C100.661 12.5 99.6699 11.9278 99.1341 10.9992L95.5612 4.80606C94.3144 2.64494 91.1279 2.86156 90.1851 5.17154L84.2062 19.8197C83.3958 21.8054 80.8239 22.3239 79.3074 20.8074L72.5067 14.0067C71.6044 13.1044 70.2302 12.8716 69.0811 13.4264L59.0556 18.2662C57.6218 18.9584 55.897 18.41 55.1263 17.0168L46.5716 1.55257C45.3453 -0.664252 42.0932 -0.456949 41.1583 1.89765L32.4365 23.8636C31.4859 26.2578 28.1585 26.4194 26.9804 24.1285L24.4688 19.2449C23.2251 16.8266 19.6634 17.178 18.9164 19.7928L17.5854 24.4513C16.9181 26.7866 13.8972 27.4025 12.369 25.5147L10.9728 23.7899C9.47623 21.9412 6.52627 22.4861 5.78887 24.7475Z" fill="url(#paint0_linear_104_3494)" fill-opacity="0.78"/>
<defs>
<linearGradient id="paint0_linear_104_3494" x1="53.5" y1="-4" x2="53.5" y2="53" gradientUnits="userSpaceOnUse">
<stop stop-color="#1ECB6E" stop-opacity="0.42"/>
<stop offset="1" stop-color="#1ECB6E" stop-opacity="0"/>
</linearGradient>
</defs>
</svg>
