<svg width="118" height="52" viewBox="0 0 118 52" fill="none" xmlns="http://www.w3.org/2000/svg">
<path d="M1 47.5L7.35925 27.9983C7.85085 26.4907 9.81748 26.1275 10.8152 27.36L14.5794 32.0098C15.5982 33.2683 17.6121 32.8577 18.0569 31.3008L20.6109 22.3618C21.109 20.6187 23.4834 20.3844 24.3125 21.9966L28.9869 31.0857C29.7724 32.6129 31.9906 32.5052 32.6243 30.9091L42.9389 4.93177C43.5621 3.36204 45.7302 3.22383 46.5478 4.70171L56.5842 22.8445C57.098 23.7733 58.2479 24.139 59.2038 23.6775L70.7207 18.1176C71.4868 17.7478 72.403 17.903 73.0045 18.5045L81.3716 26.8716C82.3826 27.8826 84.0972 27.5369 84.6375 26.2132L91.9567 8.28103C92.5853 6.74104 94.7096 6.59662 95.5408 8.03737L100.423 16.4994C100.78 17.1186 101.44 17.5 102.155 17.5H108" stroke="#DEC95B" stroke-width="2" stroke-linecap="round"/>
<path d="M6.78887 28.7475L1.12552 46.1151C1.04236 46.3701 1 46.6366 1 46.9049C1 49.7188 3.28117 52 6.09513 52H102C105.314 52 108 49.3137 108 46V19.5C108 17.8431 106.657 16.5 105 16.5H102.733C101.661 16.5 100.67 15.9278 100.134 14.9992L96.5612 8.80606C95.3144 6.64494 92.1279 6.86156 91.1851 9.17154L85.2062 23.8197C84.3958 25.8054 81.8239 26.3239 80.3074 24.8074L73.5067 18.0067C72.6044 17.1044 71.2302 16.8716 70.0811 17.4264L60.0556 22.2662C58.6218 22.9584 56.897 22.41 56.1263 21.0168L47.5716 5.55257C46.3453 3.33575 43.0932 3.54305 42.1583 5.89765L33.4365 27.8636C32.4859 30.2578 29.1585 30.4194 27.9804 28.1285L25.4688 23.2449C24.2251 20.8266 20.6634 21.178 19.9164 23.7928L18.5854 28.4513C17.9181 30.7866 14.8972 31.4025 13.369 29.5147L11.9728 27.7899C10.4762 25.9412 7.52627 26.4861 6.78887 28.7475Z" fill="url(#paint0_linear_104_3437)"/>
<g filter="url(#filter0_f_104_3437)">
<circle cx="107" cy="18" r="6" fill="#DEC95B"/>
</g>
<defs>
<filter id="filter0_f_104_3437" x="96" y="7" width="22" height="22" filterUnits="userSpaceOnUse" color-interpolation-filters="sRGB">
<feFlood flood-opacity="0" result="BackgroundImageFix"/>
<feBlend mode="normal" in="SourceGraphic" in2="BackgroundImageFix" result="shape"/>
<feGaussianBlur stdDeviation="2.5" result="effect1_foregroundBlur_104_3437"/>
</filter>
<linearGradient id="paint0_linear_104_3437" x1="54.5" y1="0" x2="54.5" y2="57" gradientUnits="userSpaceOnUse">
<stop stop-color="#DEC95B" stop-opacity="0.46"/>
<stop offset="1" stop-color="#DEC95B" stop-opacity="0"/>
</linearGradient>
</defs>
</svg>
