<svg width="117" height="48" viewBox="0 0 117 48" fill="none" xmlns="http://www.w3.org/2000/svg">
<path d="M1 46.5L7.35925 26.9983C7.85085 25.4907 9.81748 25.1275 10.8152 26.36L14.5794 31.0098C15.5982 32.2683 17.6121 31.8577 18.0569 30.3008L20.6109 21.3618C21.109 19.6187 23.4834 19.3844 24.3125 20.9966L28.9869 30.0857C29.7724 31.6129 31.9906 31.5052 32.6243 29.9091L42.9389 3.93177C43.5621 2.36204 45.7302 2.22383 46.5478 3.70171L56.5842 21.8445C57.098 22.7733 58.2479 23.139 59.2038 22.6775L70.7207 17.1176C71.4868 16.7478 72.403 16.903 73.0045 17.5045L81.3716 25.8716C82.3826 26.8826 84.0972 26.5369 84.6375 25.2132L91.9567 7.28103C92.5853 5.74104 94.7096 5.59662 95.5408 7.03737L100.423 15.4994C100.78 16.1186 101.44 16.5 102.155 16.5H108" stroke="url(#paint0_linear_104_3460)" stroke-width="2" stroke-linecap="round"/>
<g filter="url(#filter0_f_104_3460)">
<circle cx="107" cy="17" r="5" fill="#B0B0B0"/>
</g>
<defs>
<filter id="filter0_f_104_3460" x="97" y="7" width="20" height="20" filterUnits="userSpaceOnUse" color-interpolation-filters="sRGB">
<feFlood flood-opacity="0" result="BackgroundImageFix"/>
<feBlend mode="normal" in="SourceGraphic" in2="BackgroundImageFix" result="shape"/>
<feGaussianBlur stdDeviation="2.5" result="effect1_foregroundBlur_104_3460"/>
</filter>
<linearGradient id="paint0_linear_104_3460" x1="12" y1="15" x2="114" y2="33" gradientUnits="userSpaceOnUse">
<stop stop-color="#696969"/>
<stop offset="1" stop-color="#9A9A9A"/>
</linearGradient>
</defs>
</svg>
