<svg width="1202" height="266" viewBox="0 0 1202 266" fill="none" xmlns="http://www.w3.org/2000/svg">
<path opacity="0.2" d="M1183.45 0L1201.77 34.6245V265.69H0.000854492V141.325L25.078 191.495L49.1906 141.325L81.019 106.7L118.635 141.325L144.676 166.056L162.037 141.325H208.333L228.588 95.3941L253.665 141.325L278.742 191.495L302.855 141.325L324.074 132.139L367.477 141.325L392.554 129.312L427.276 104.58L455.246 95.3941L481.288 45.9305L499.613 58.6497L532.406 45.9305L558.448 28.9715L582.561 45.9305L615.354 58.6497L639.466 45.9305L663.579 96.1008L684.798 45.9305L720.484 70.6623L753.278 45.9305L784.142 129.312L814.041 116.593L848.763 129.312L888.308 116.593L932.675 141.325L965.468 34.6245L993.439 17.6656L1019.48 34.6245L1037.81 59.3563L1065.78 34.6245L1085.07 47.3438L1109.18 34.6245L1120.75 25.4384L1138.11 34.6245L1153.55 17.6656L1170.91 34.6245L1183.45 0Z" fill="url(#paint0_linear_104_2350)"/>
<defs>
<linearGradient id="paint0_linear_104_2350" x1="600.886" y1="0" x2="600.886" y2="265.69" gradientUnits="userSpaceOnUse">
<stop stop-color="#06F402"/>
<stop offset="1" stop-color="#5B60DE" stop-opacity="0"/>
</linearGradient>
</defs>
</svg>
