<svg width="14" height="14" viewBox="0 0 14 14" fill="none" xmlns="http://www.w3.org/2000/svg">
<path d="M5.46085 8.34769L6.33812 8.74001C6.89936 8.99066 7.54233 8.99066 8.10901 8.74001L8.98628 8.34769C9.77092 7.99896 10.4956 8.94707 9.95074 9.61183L8.06542 11.9167C7.60227 12.4834 6.84487 12.4834 6.37626 11.9167L4.4964 9.61183C3.94606 8.94707 4.67076 7.99896 5.46085 8.34769Z" fill="white"/>
<path d="M5.35231 6.84379C5.18885 6.96367 5.21064 7.21432 5.3959 7.30695L6.67639 7.94447C6.97608 8.09704 7.46103 8.09704 7.75527 7.94447L9.03576 7.30695C9.21558 7.21432 9.23737 6.96912 9.07935 6.84379L7.38475 5.56875C7.28667 5.49792 7.15589 5.49792 7.05781 5.56875L5.35231 6.84379Z" fill="white"/>
<path d="M10.4251 4.97481L8.15292 2.14139C8.10933 2.0869 8.06029 2.03786 8.01125 1.98882C7.86958 1.8526 7.66797 1.97792 7.66797 2.17408V4.5171C7.66797 4.60428 7.70611 4.68602 7.77694 4.73506L10.0382 6.43511L10.1363 6.50595C10.2344 6.57678 10.3706 6.57678 10.4524 6.4896C10.8338 6.07548 10.8283 5.47611 10.4251 4.97481Z" fill="white"/>
<path d="M4.01166 5.02379L6.27295 2.14678C6.31655 2.09229 6.36014 2.04325 6.40918 1.99421C6.55085 1.85799 6.75245 1.97786 6.75245 2.17947V4.56063C6.75245 4.64782 6.71431 4.7241 6.64348 4.77859L4.39309 6.50589L4.30046 6.57672C4.20238 6.64756 4.06615 6.64756 3.97897 6.55493C3.60845 6.13536 3.6139 5.53599 4.01166 5.02379Z" fill="white"/>
</svg>
