<svg width="152" height="43" viewBox="0 0 152 43" fill="none" xmlns="http://www.w3.org/2000/svg">
<path d="M3.9442 23.1835L0.973633 25.9689V42.8501H150.987V5.88299L149.007 6.2809L146.531 1.10803L144.551 3.49551L144.056 7.44393L140.59 13.9451L139.6 15.9347L138.61 13.9451L136.134 17.9243L134.154 12.7514L131.678 17.1284L130.193 12.7514L126.232 14.741L122.767 8.77226L121.281 20.3117L120.291 29.8617L117.816 27.7009L113.36 29.6905L110.389 26.5072L109.894 31.2822L106.924 28.8947L101.478 34.0676L99.4973 33.6247L96.5267 32.078L92.0709 32.8738L89.1003 30.0884L87.615 31.6801L85.1396 27.7009L82.6641 29.6905L79.6935 28.8947L77.7132 24.5176L73.2573 30.4863L70.2868 25.7114C70.1217 26.6398 69.7917 28.5764 69.7917 28.8947C69.7917 29.213 69.1315 28.2315 68.8015 27.7009L65.3358 30.4863L62.3653 29.6905C61.8702 30.3537 60.88 31.7597 60.88 32.078C60.88 32.3963 59.5597 30.619 58.8996 29.6905L56.4241 32.8738L53.4536 30.0884L50.483 31.2822L49.4928 27.7009L47.0173 31.2822L45.037 28.0989L43.5517 34.0676L40.5811 32.078L36.1253 36.0571L31.1743 30.0884V36.0571C31.1743 36.3755 29.194 29.1522 28.2038 31.9375L26.2234 33.1006L19.2921 25.1423L17.8068 29.5194C16.8166 28.193 14.3412 25.1423 14.3412 25.1423C14.3412 25.1423 12.5258 27.3971 11.8657 28.7235L7.40985 23.9486L5.42948 28.7235L3.9442 23.1835Z" fill="url(#paint0_linear_92_953)"/>
<path d="M0.973633 25.9689L3.9442 23.1835L5.42948 28.7235L7.40985 23.9486L11.8657 28.7235C12.5258 27.3971 13.9825 25.5026 14.3412 25.1423C14.6705 24.8116 16.8166 28.193 17.8068 29.5194L19.2921 25.1423L26.2234 33.1006L28.2038 31.9376C29.194 29.1522 31.1743 36.3755 31.1743 36.0571C31.1743 35.7388 31.1743 31.9454 31.1743 30.0884L36.1253 36.0571L40.5811 32.078L43.5517 34.0676L45.037 28.0989L47.0173 31.2822L49.4928 27.7009L50.483 31.2822L53.4536 30.0884L56.4241 32.8738L58.8996 29.6905C59.5597 30.619 60.88 32.3963 60.88 32.078C60.88 31.7597 61.8702 30.3537 62.3653 29.6905L65.3358 30.4863L68.8015 27.7009C69.1315 28.2315 69.7917 29.213 69.7917 28.8947C69.7917 28.5764 70.1217 26.6398 70.2868 25.7114L73.2573 30.4863L77.7132 24.5176L79.6935 28.8947L82.6641 29.6905L85.1396 27.7009L87.615 31.6801L89.1003 30.0884L92.0709 32.8738L96.5267 32.078L99.4973 33.6247L101.478 34.0676L106.924 28.8947L109.894 31.2822L110.389 26.5072L113.36 29.6905L117.816 27.7009L120.291 29.8617L121.281 20.3117L122.767 8.77226L126.232 14.741L130.193 12.7514L131.678 17.1284L134.154 12.7514L136.134 17.9243L138.61 13.9451L139.6 15.9347L140.59 13.9451L144.056 7.44393L144.551 3.49551L146.531 1.10803L149.007 6.28091L150.987 5.883" stroke="#2DC24E"/>
<defs>
<linearGradient id="paint0_linear_92_953" x1="123.262" y1="7.8071" x2="123.262" y2="40.0458" gradientUnits="userSpaceOnUse">
<stop stop-color="#2DC24E"/>
<stop offset="1" stop-color="#2DC24E" stop-opacity="0"/>
</linearGradient>
</defs>
</svg>
