<svg width="152" height="44" viewBox="0 0 152 44" fill="none" xmlns="http://www.w3.org/2000/svg">
<path d="M3.9442 15.904L0.973633 18.5467V43.9741H150.987V9.43332L149.007 9.81084L146.531 4.90302L144.551 7.16817L144.056 10.9143L140.59 7.13902L139.6 9.02665L138.61 7.13902L136.134 10.9143L134.154 6.00645L131.678 10.1592L130.193 6.00645L126.232 7.89407L122.767 2.2312L121.281 13.1794L120.291 22.24L117.816 20.19L113.36 22.0776L110.389 19.0574L109.894 23.5877L106.924 21.3226L101.478 26.2304L99.4973 30.7607L96.5267 24.3428L92.0709 25.0978L89.1003 22.4551L87.615 23.9652L85.1396 20.19L82.6641 22.0776L79.6935 21.3226L77.7132 17.1698L73.2573 22.8327L70.2868 18.3024C70.1217 19.1833 69.7917 21.0206 69.7917 21.3226C69.7917 21.6246 69.1315 20.6934 68.8015 20.19L65.3358 22.8327L62.3653 22.0776C61.8702 22.7068 60.88 24.0408 60.88 24.3428C60.88 24.6448 59.5597 22.9585 58.8996 22.0776L56.4241 25.0978L53.4536 22.4551L50.483 23.5877L49.4928 20.19L47.0173 23.5877L45.037 20.5675L43.5517 26.2304L40.5811 24.3428L36.1253 28.118L31.1743 22.4551V28.118C31.1743 28.42 29.194 21.5669 28.2038 24.2095L26.2234 25.313L19.2921 17.7625L17.8068 21.9152C16.8166 20.6568 14.3412 17.7625 14.3412 17.7625C14.3412 17.7625 12.5258 19.9018 11.8657 21.1602L7.40985 16.6299L5.42948 21.1602L3.9442 15.904Z" fill="url(#paint0_linear_92_950)"/>
<path d="M0.973633 19.3546L3.9442 16.581L5.42948 22.0975L7.40985 17.3429L11.8657 22.0975C12.5258 20.7768 13.9825 18.8903 14.3412 18.5315C14.6705 18.2022 16.8166 21.5692 17.8068 22.89L19.2921 18.5315L26.2234 26.4559L28.2038 25.2979C29.194 22.5243 31.1743 29.7169 31.1743 29.3999C31.1743 29.0829 31.1743 25.3056 31.1743 23.4566L36.1253 29.3999L40.5811 25.4377L43.5517 27.4188L45.037 21.4755L47.0173 24.6453L49.4928 21.0793L50.483 24.6453L53.4536 23.4566L56.4241 26.2301L58.8996 23.0604C59.5597 23.9849 60.88 25.7547 60.88 25.4377C60.88 25.1207 61.8702 23.7207 62.3653 23.0604L65.3358 23.8528L68.8015 21.0793C69.1315 21.6076 69.7917 22.5849 69.7917 22.2679C69.7917 21.951 70.1217 20.0227 70.2868 19.0982L73.2573 23.8528L77.7132 17.9095L79.6935 22.2679L82.6641 23.0604L85.1396 21.0793L87.615 25.0415L89.1003 23.4566L92.0709 26.2301L96.5267 25.4377L99.4973 32.1734L101.478 27.4188L106.924 22.2679L109.894 24.6453L110.389 19.8906L113.36 23.0604L117.816 21.0793L120.291 23.2308L121.281 13.7216L122.767 2.2312L126.232 8.17449L130.193 6.19339L131.678 10.5518L134.154 6.19339L136.134 11.3442L138.61 7.38205L139.6 9.36315L140.59 7.38205L144.056 11.3442L144.551 7.41264L146.531 5.03533L149.007 10.1862L150.987 9.78996" stroke="#2DC24E"/>
<defs>
<linearGradient id="paint0_linear_92_950" x1="123.262" y1="1.31401" x2="123.262" y2="37.1789" gradientUnits="userSpaceOnUse">
<stop stop-color="#2DC24E"/>
<stop offset="1" stop-color="#2DC24E" stop-opacity="0"/>
</linearGradient>
</defs>
</svg>
