<svg width="152" height="44" viewBox="0 0 152 44" fill="none" xmlns="http://www.w3.org/2000/svg">
<path d="M0.973633 16.4108L3.9442 13.6373L5.42948 6.10912L7.40985 1.35449L11.8657 6.10912C12.5258 4.78839 13.9451 2.22617 14.3412 2.54315C14.7372 2.86012 16.8166 5.58083 17.8068 6.90156L19.2921 2.54315L26.2234 10.4675L28.2038 22.3541C29.194 19.5806 31.1743 26.7731 31.1743 26.4561C31.1743 26.1392 31.1743 22.3619 31.1743 20.5129L36.1253 26.4561L40.5811 22.494L43.5517 24.475L45.037 18.5318L47.0173 21.7015L49.4928 18.1355L50.483 21.7015L53.4536 20.5129L56.4241 23.2864L58.8996 20.1166C59.5597 21.0411 60.88 22.8109 60.88 22.494C60.88 22.177 61.8702 20.777 62.3653 20.1166L65.3358 20.9091L68.8015 18.1355C69.1315 18.6638 69.7917 19.6412 69.7917 19.3242C69.7917 19.0072 70.1217 17.079 70.2868 16.1544L73.2573 20.9091L77.7132 14.9658L79.6935 19.3242L82.6641 20.1166L85.1396 18.1355L87.615 22.0977L89.1003 20.5129L92.0709 23.2864L96.5267 22.494L99.4973 29.2297L101.478 24.475L106.924 19.3242L109.894 21.7015L110.389 16.9469L113.36 20.1166L117.816 18.1355L120.291 33.3317L121.281 23.8224L122.767 12.3321L126.232 18.2754L130.193 16.2943L131.678 20.6527L134.154 16.2943L136.134 21.4451L138.61 17.4829L139.6 19.464L140.59 17.4829L144.056 21.4451L144.551 30.5582L146.531 28.1809L149.007 33.3317L150.987 32.9355" stroke="#F92C2C"/>
<path d="M3.9442 13.6373L0.973633 16.4108V43.0974H150.987V32.9355L149.007 33.3317L146.531 28.1809L144.551 30.5582L144.056 21.4451L140.59 17.4829L139.6 19.464L138.61 17.4829L136.134 21.4451L134.154 16.2943L131.678 20.6527L130.193 16.2943L126.232 18.2754L122.767 12.3321L121.281 23.8224L120.291 33.3317L117.816 18.1355L113.36 20.1166L110.389 16.9469L109.894 21.7015L106.924 19.3242L101.478 24.475L99.4973 29.2297L96.5267 22.494L92.0709 23.2864L89.1003 20.5129L87.615 22.0977L85.1396 18.1355L82.6641 20.1166L79.6935 19.3242L77.7132 14.9658L73.2573 20.9091L70.2868 16.1544C70.1217 17.079 69.7917 19.0072 69.7917 19.3242C69.7917 19.6412 69.1315 18.6638 68.8015 18.1355L65.3358 20.9091L62.3653 20.1166C61.8702 20.777 60.88 22.177 60.88 22.494C60.88 22.8109 59.5597 21.0411 58.8996 20.1166L56.4241 23.2864L53.4536 20.5129L50.483 21.7015L49.4928 18.1355L47.0173 21.7015L45.037 18.5318L43.5517 24.475L40.5811 22.494L36.1253 26.4561L31.1743 20.5129V26.4561C31.1743 26.7731 29.194 19.5806 28.2038 22.3541L26.2234 10.4675L19.2921 2.54315L17.8068 6.90156C16.8166 5.58083 14.7372 2.86012 14.3412 2.54315C13.9451 2.22617 12.5258 4.78839 11.8657 6.10912L7.40985 1.35449L5.42948 6.10912L3.9442 13.6373Z" fill="url(#paint0_linear_92_944)"/>
<defs>
<linearGradient id="paint0_linear_92_944" x1="123.262" y1="-1.67437" x2="123.262" y2="35.9665" gradientUnits="userSpaceOnUse">
<stop stop-color="#F92C2C"/>
<stop offset="1" stop-color="#F92C2C" stop-opacity="0"/>
</linearGradient>
</defs>
</svg>
