<svg width="152" height="43" viewBox="0 0 152 43" fill="none" xmlns="http://www.w3.org/2000/svg">
<path d="M0.973633 16.0412L3.9442 13.2677L5.42948 5.73949L7.40985 0.984863L11.8657 5.73949C12.5258 4.41876 13.9451 1.85654 14.3412 2.17352C14.7372 2.49049 16.8166 5.2112 17.8068 6.53193L19.2921 2.17352L26.2234 10.0979L28.2038 21.9845C29.194 19.2109 31.1743 26.4035 31.1743 26.0865C31.1743 25.7695 31.1743 21.9922 31.1743 20.1432L36.1253 26.0865L40.5811 22.1243L43.5517 24.1054L45.037 18.1621L47.0173 21.3319L49.4928 17.7659L50.483 21.3319L53.4536 20.1432L56.4241 22.9168L58.8996 19.747C59.5597 20.6715 60.88 22.4413 60.88 22.1243C60.88 21.8073 61.8702 20.4074 62.3653 19.747L65.3358 20.5394L68.8015 17.7659C69.1315 18.2942 69.7917 19.2715 69.7917 18.9546C69.7917 18.6376 70.1217 16.7093 70.2868 15.7848L73.2573 20.5394L77.7132 14.5962L79.6935 18.9546L82.6641 19.747L85.1396 17.7659L87.615 21.7281L89.1003 20.1432L92.0709 22.9168L96.5267 22.1243L99.4973 28.86L101.478 24.1054L106.924 18.9546L109.894 21.3319L110.389 16.5773L113.36 19.747L117.816 17.7659L120.291 32.9621L121.281 23.4528L122.767 21.0937L126.232 27.037L130.193 25.0559L131.678 29.4143L134.154 25.0559L136.134 30.2068L138.61 26.2446L139.6 28.2257L140.59 26.2446L144.056 30.2068L144.551 30.1885L146.531 27.8112L149.007 32.9621L150.987 32.5659" stroke="#F92C2C"/>
<path d="M3.9442 13.2677L0.973633 16.0412V42.7277H150.987V32.5659L149.007 32.9621L146.531 27.8112L144.551 30.1885L144.056 30.2068L140.59 26.2446L139.6 28.2257L138.61 26.2446L136.134 30.2068L134.154 25.0559L131.678 29.4143L130.193 25.0559L126.232 27.037L122.767 21.0937L121.281 23.4528L120.291 32.9621L117.816 17.7659L113.36 19.747L110.389 16.5773L109.894 21.3319L106.924 18.9546L101.478 24.1054L99.4973 28.86L96.5267 22.1243L92.0709 22.9168L89.1003 20.1432L87.615 21.7281L85.1396 17.7659L82.6641 19.747L79.6935 18.9546L77.7132 14.5962L73.2573 20.5394L70.2868 15.7848C70.1217 16.7093 69.7917 18.6376 69.7917 18.9546C69.7917 19.2715 69.1315 18.2942 68.8015 17.7659L65.3358 20.5394L62.3653 19.747C61.8702 20.4074 60.88 21.8074 60.88 22.1243C60.88 22.4413 59.5597 20.6715 58.8996 19.747L56.4241 22.9168L53.4536 20.1432L50.483 21.3319L49.4928 17.7659L47.0173 21.3319L45.037 18.1621L43.5517 24.1054L40.5811 22.1243L36.1253 26.0865L31.1743 20.1432V26.0865C31.1743 26.4035 29.194 19.2109 28.2038 21.9845L26.2234 10.0979L19.2921 2.17352L17.8068 6.53193C16.8166 5.2112 14.7372 2.4905 14.3412 2.17352C13.9451 1.85654 12.5258 4.41876 11.8657 5.73949L7.40985 0.984863L5.42948 5.73949L3.9442 13.2677Z" fill="url(#paint0_linear_92_947)"/>
<defs>
<linearGradient id="paint0_linear_92_947" x1="123.262" y1="-2.044" x2="123.262" y2="35.5968" gradientUnits="userSpaceOnUse">
<stop stop-color="#F92C2C"/>
<stop offset="1" stop-color="#F92C2C" stop-opacity="0"/>
</linearGradient>
</defs>
</svg>
