<svg width="40" height="37" viewBox="0 0 40 37" fill="none" xmlns="http://www.w3.org/2000/svg">
<path d="M8.25402 2.11188L39.3269 23.3283L31.6422 34.6883L0.569336 13.3048L8.25402 2.11188Z" fill="url(#paint0_linear_92_300)"/>
<path d="M39.3265 23.3282C36.6535 27.1705 27.6324 25.667 19.1124 19.6529C10.4253 13.8059 5.74771 5.95411 8.25358 2.11176C10.9265 -1.73058 19.9477 -0.227055 28.4677 5.78705C37.1547 11.467 41.8323 19.4858 39.3265 23.3282Z" fill="url(#paint1_linear_92_300)"/>
<path d="M31.6418 34.5211C28.9689 38.3634 19.9477 36.8599 11.4277 30.8458C2.90775 24.8317 -1.93694 17.147 0.735992 13.1376C3.40893 9.29524 12.4301 10.7988 20.9501 16.8129C29.47 22.827 34.1477 30.6787 31.6418 34.5211Z" fill="url(#paint2_linear_92_300)"/>
<path d="M39.3264 23.3282L31.6417 34.6882C28.9688 38.5306 19.9476 36.86 11.4276 31.0129C9.75705 29.8435 8.25353 28.6741 6.75 27.3376C7.91941 27.1706 9.42294 26.5023 10.9265 24.8318C13.5994 21.9918 14.9359 21.3235 16.1053 21.4906C17.2747 21.4906 18.6111 22.66 20.7829 25.5C22.9547 28.34 25.9617 29.1753 27.7994 27.6718C27.9664 27.5047 28.1335 27.5047 28.3005 27.3376C29.8041 26.1682 30.3052 25.6671 33.1452 20.3212C33.8135 18.9847 36.1523 16.813 39.3264 17.8153C40.1617 19.9871 40.1617 21.8247 39.3264 23.3282Z" fill="#0E0F23"/>
<path fill-rule="evenodd" clip-rule="evenodd" d="M38.1573 22.66C35.8185 26.0012 27.6326 24.3306 19.7809 18.8177C11.7621 13.3047 7.08444 6.28828 9.42325 2.94711C11.7621 -0.394061 19.9479 1.27652 27.7997 6.78945C35.6514 12.3024 40.3291 19.3188 38.1573 22.66ZM30.8067 17.6483C29.6373 19.3188 25.6279 18.4835 21.6185 15.8106C17.7762 13.1377 15.4374 9.62945 16.6068 7.95886C17.7762 6.28828 21.7856 7.12357 25.795 9.7965C29.6373 12.4694 31.9761 15.9777 30.8067 17.6483Z" fill="white"/>
<path d="M7.58523 5.95418C7.58523 5.78712 7.41817 5.62007 7.25111 5.78712C7.08405 5.95418 6.91699 5.95418 6.91699 6.12124C7.08405 6.62242 7.25111 6.95653 7.25111 7.29065C7.25111 7.45771 7.41817 7.62477 7.58523 7.45771C7.75228 7.45771 7.91934 7.29065 7.75228 7.12359C7.75228 6.78947 7.75228 6.45536 7.58523 5.95418Z" fill="white"/>
<path d="M8.4211 8.62703C8.4211 8.45998 8.25404 8.29292 8.08698 8.45998C7.91992 8.62703 7.91992 8.62703 7.91992 8.79409C9.75756 12.9706 13.5999 17.4811 18.6117 20.8223C18.7787 20.9894 18.9458 20.8223 19.1128 20.8223C19.2799 20.6552 19.1128 20.4882 19.1128 20.3211C13.934 16.98 10.2587 12.6364 8.4211 8.62703Z" fill="white"/>
<path d="M28.6349 24.9989C28.4678 24.9989 28.3008 24.9989 28.3008 25.1659C28.3008 25.333 28.3008 25.5 28.4678 25.5C28.969 25.6671 29.6372 25.8342 30.1384 26.0012C30.3055 26.0012 30.4725 26.0012 30.4725 25.8342C30.4725 25.6671 30.4725 25.5 30.3055 25.5C29.8043 25.333 29.1361 25.1659 28.6349 24.9989Z" fill="white"/>
<path d="M31.6417 25.667C31.4747 25.667 31.3076 25.8341 31.3076 26.0011C31.3076 26.1682 31.4747 26.3352 31.6417 26.3352C32.9782 26.5023 34.4817 26.6693 35.6511 26.5023C35.8182 26.5023 35.9853 26.3352 35.9853 26.1682C35.9853 26.0011 35.8182 25.8341 35.6511 25.8341C34.3147 26.0011 32.9782 25.8341 31.6417 25.667Z" fill="white"/>
<defs>
<linearGradient id="paint0_linear_92_300" x1="14.342" y1="-0.904697" x2="20.5041" y2="20.2553" gradientUnits="userSpaceOnUse">
<stop stop-color="#03B8FF"/>
<stop offset="1" stop-color="#FA52A0"/>
</linearGradient>
<linearGradient id="paint1_linear_92_300" x1="19.4161" y1="-2.38278" x2="25.5784" y2="18.7773" gradientUnits="userSpaceOnUse">
<stop stop-color="#03B8FF"/>
<stop offset="1" stop-color="#FA52A0"/>
</linearGradient>
<linearGradient id="paint2_linear_92_300" x1="9.2827" y1="0.56827" x2="15.445" y2="21.7284" gradientUnits="userSpaceOnUse">
<stop stop-color="#03B8FF"/>
<stop offset="1" stop-color="#FA52A0"/>
</linearGradient>
</defs>
</svg>
