<svg width="48" height="48" viewBox="0 0 48 48" fill="none" xmlns="http://www.w3.org/2000/svg">
<circle cx="24" cy="24" r="14" fill="white"/>
<path fill-rule="evenodd" clip-rule="evenodd" d="M24 4.01672C12.941 4.01672 4 13.0209 4 24.1004C4 35.1799 12.941 44.1841 24 44.1841C35.0574 44.1841 44 35.2033 44 24.1004C44 13.0209 35.0331 4.01672 24 4.01672ZM25.6087 25.0477L32.6192 32.087C32.7538 32.2197 32.8585 32.3815 32.9256 32.5609C32.9927 32.7403 33.0207 32.9328 33.0076 33.1247C32.9945 33.3166 32.9405 33.5032 32.8496 33.671C32.7587 33.8388 32.6331 33.9837 32.4818 34.0954C30.237 35.8687 27.4899 36.8264 24.6661 36.8201C17.1964 36.8201 11.2175 30.3096 12.0922 22.646C12.7357 16.7598 17.4939 12.0268 23.3775 11.4494C26.6528 11.1057 29.932 12.0629 32.5513 14.1272C32.6946 14.2411 32.8122 14.3859 32.896 14.5516C32.9798 14.7173 33.0277 14.8999 33.0365 15.0867C33.0453 15.2735 33.0147 15.46 32.9468 15.6333C32.8789 15.8067 32.7754 15.9626 32.6435 16.0904L25.6087 23.1531C25.4834 23.2745 25.3835 23.4212 25.3152 23.5841C25.2469 23.747 25.2116 23.9228 25.2116 24.1004C25.2116 24.278 25.2469 24.4538 25.3152 24.6167C25.3835 24.7797 25.4834 24.9263 25.6087 25.0477Z" fill="#69E2DC"/>
</svg>
