<svg width="48" height="48" viewBox="0 0 48 48" fill="none" xmlns="http://www.w3.org/2000/svg">
<path fill-rule="evenodd" clip-rule="evenodd" d="M4 25C4 13.9537 12.9537 5 24 5C35.0463 5 44 13.9537 44 25C44 36.0463 35.0463 45 24 45C12.9537 45 4 36.0463 4 25ZM33.4138 29.0831C33.4087 28.0413 34.2577 27.1936 35.3099 27.1869H35.315C36.3674 27.1953 37.2147 28.0463 37.2061 29.0865C37.2095 30.1251 36.3623 30.9727 35.3099 30.9794C34.2577 30.9744 33.4087 30.1267 33.4138 29.0865V29.0831ZM34.7764 25.0147C35.6826 24.4915 35.9952 23.3315 35.4719 22.4256C34.9486 21.5197 33.7882 21.2071 32.8821 21.7304C31.9792 22.2501 31.6666 23.4017 32.1799 24.3076L32.1916 24.3244C32.7149 25.2286 33.8702 25.5378 34.7747 25.0147C34.7747 25.0155 34.7751 25.0159 34.7755 25.0159C34.7759 25.0159 34.7764 25.0155 34.7764 25.0147ZM12.591 22.4295C13.1163 21.5233 14.2773 21.2157 15.1839 21.7406C16.0873 22.2639 16.3951 23.4209 15.8732 24.3254V24.3321C15.3479 25.2381 14.1869 25.5458 13.2802 25.0208C12.3736 24.4959 12.0658 23.3357 12.591 22.4295ZM18.2911 21.2172C19.3396 21.2155 20.1888 20.3644 20.187 19.3176C20.187 18.9899 20.1016 18.6688 19.9392 18.3845C19.4251 17.4765 18.2693 17.1555 17.3583 17.6705C17.3578 17.6705 17.3575 17.6706 17.3573 17.6708L17.357 17.671L17.3566 17.6713C17.3562 17.6718 17.3557 17.6722 17.3549 17.6722L17.3231 17.6906C16.422 18.2257 16.1256 19.3895 16.6615 20.2891C17.0032 20.8626 17.6212 21.2155 18.2911 21.2172ZM22.0874 17.7745C22.0874 16.7277 22.9369 15.8783 23.9836 15.8783C25.0305 15.8783 25.8799 16.7277 25.8799 17.7745C25.8799 18.8213 25.0305 19.6707 23.9836 19.6707C22.9369 19.6707 22.0874 18.8213 22.0874 17.7745ZM17.9343 27.1883C16.8875 27.1883 16.0381 28.0377 16.0381 29.0846C16.0381 30.1312 16.8875 30.9808 17.9343 30.9808C18.9811 30.9808 19.8306 30.1312 19.8306 29.0846C19.8306 28.0377 18.9811 27.1883 17.9343 27.1883ZM25.2577 23.9093C25.2577 22.8625 26.1072 22.0131 27.1539 22.0131C28.2007 22.0131 29.0501 22.8625 29.0501 23.9093C29.0501 24.956 28.2007 25.8056 27.1539 25.8056C26.1072 25.8056 25.2577 24.956 25.2577 23.9093ZM28.7385 21.032L28.763 21.0457C29.7399 21.5312 30.932 21.1469 31.4266 20.188C31.8827 19.3031 31.5873 18.2223 30.7396 17.6803C29.7661 17.188 28.5707 17.562 28.069 18.5174C27.6041 19.4007 27.8925 20.4848 28.7385 21.032ZM10.7938 29.0487C10.8156 28.0021 11.6807 27.1701 12.7269 27.1869C13.7563 27.2071 14.5829 28.0474 14.5862 29.0772C14.5896 30.1254 13.7429 30.9758 12.6951 30.9792C11.6472 30.9825 10.7972 30.1355 10.7938 29.0873V29.0487ZM29.9684 27.1826C28.9216 27.1826 28.0722 28.0322 28.0722 29.0789C28.0722 30.1257 28.9216 30.9751 29.9684 30.9751C31.0151 30.9751 31.8646 30.1257 31.8646 29.0789C31.8646 28.0322 31.0151 27.1826 29.9684 27.1826ZM22.478 22.8604C23.0557 23.7322 22.8186 24.9082 21.947 25.4861C21.8801 25.5312 21.8101 25.573 21.7367 25.6081C20.7999 26.0725 19.6628 25.69 19.1986 24.7529C18.7345 23.8158 19.1169 22.6783 20.0535 22.2138L20.0652 22.2071C20.9184 21.7879 21.952 22.0669 22.478 22.8604Z" fill="#2C56DD"/>
</svg>
