<svg width="24" height="25" viewBox="0 0 24 25" fill="none" xmlns="http://www.w3.org/2000/svg">
<path d="M12 22.5789C17.5228 22.5789 22 18.1018 22 12.5789C22 7.0561 17.5228 2.57895 12 2.57895C6.47715 2.57895 2 7.0561 2 12.5789C2 18.1018 6.47715 22.5789 12 22.5789Z" fill="#ED79AA"/>
<path opacity="0.5" fill-rule="evenodd" clip-rule="evenodd" d="M16.6575 8.15958L15.4888 9.33645C15.0677 8.91057 14.5662 8.57254 14.0135 8.34198C13.4607 8.11141 12.8677 7.9929 12.2688 7.99333C9.82189 7.99333 7.82501 9.93708 7.72001 12.3746H7.71501V16.8258C6.64949 15.6685 6.05942 14.1521 6.06251 12.5789C6.06251 9.12708 8.84126 6.32895 12.2688 6.32895C13.0851 6.32837 13.8933 6.48989 14.6467 6.80414C15.4001 7.11839 16.0836 7.57911 16.6575 8.15958ZM16.6575 16.9983C15.523 18.1461 13.9837 18.8034 12.37 18.8289V17.1639C13.5444 17.1385 14.6628 16.6573 15.4888 15.8221L16.6575 16.9983Z" fill="white"/>
<path fill-rule="evenodd" clip-rule="evenodd" d="M9.30078 18.0689V12.3752H9.30516C9.39266 10.7471 10.7314 9.45395 12.3702 9.45395C14.0652 9.45395 15.4395 10.8377 15.4395 12.5452C15.4395 14.2521 14.0652 15.6358 12.3708 15.6358C11.8249 15.6367 11.2888 15.4906 10.8189 15.2127V18.6571C10.289 18.5295 9.7785 18.3319 9.30078 18.0696V18.0689ZM12.3702 14.1077C12.5747 14.107 12.777 14.0661 12.9657 13.9872C13.1544 13.9083 13.3257 13.793 13.4698 13.6479C13.6139 13.5028 13.728 13.3308 13.8056 13.1416C13.8832 12.9524 13.9228 12.7497 13.922 12.5452C13.922 11.6821 13.227 10.9827 12.3702 10.9827C12.1657 10.9834 11.9634 11.0244 11.7748 11.1034C11.5862 11.1823 11.415 11.2976 11.2709 11.4427C11.1269 11.5878 11.0128 11.7598 10.9353 11.949C10.8577 12.1382 10.8182 12.3407 10.8189 12.5452C10.8189 13.4077 11.5133 14.1077 12.3702 14.1077Z" fill="white"/>
</svg>
