<svg width="20" height="21" viewBox="0 0 20 21" fill="none" xmlns="http://www.w3.org/2000/svg">
<path d="M10 20.5789C15.5228 20.5789 20 16.1018 20 10.5789C20 5.0561 15.5228 0.578949 10 0.578949C4.47715 0.578949 0 5.0561 0 10.5789C0 16.1018 4.47715 20.5789 10 20.5789Z" fill="#5546FF"/>
<path d="M14.0799 15.8482L11.9272 12.4689H15.0185V11.1923H4.88086V12.4689H7.97222L5.81953 15.8482H7.42153L9.9497 11.8807L12.4779 15.8482H14.0799ZM15.0185 9.95329V8.6767H11.9897L14.1174 5.33502H12.5029L9.9497 9.36506L7.3965 5.33502H5.78199L7.90965 8.6767H4.88086V9.96581L15.0185 9.95329Z" fill="white"/>
</svg>
