<svg width="24" height="25" viewBox="0 0 24 25" fill="none" xmlns="http://www.w3.org/2000/svg">
<path d="M11.9971 3.6031C15.0825 3.6031 17.9933 4.54321 20.675 6.07993L20.8738 6.17032L20.8136 6.38124C20.8076 9.40044 19.988 12.3594 18.4452 14.9507C16.9507 17.6023 14.7752 19.8139 12.1417 21.3507L11.9971 21.4531L11.8404 21.3446C9.17673 19.8019 7.1579 17.6264 5.62721 14.9567C4.09653 12.2931 3.1745 9.32812 3.1745 6.24866L3.15039 6.10403L3.25284 6.01966C5.92251 4.48295 8.90554 3.58502 11.991 3.58502" fill="#8D33E5"/>
<path d="M20.7714 5.99556C18.1078 4.44679 15.0826 3.62118 11.9971 3.60913V21.3507L12.1959 21.4712C14.8536 19.9224 17.0532 17.7047 18.5778 15.0411C20.1266 12.3895 20.9462 9.38236 20.9522 6.31496V6.09801L20.7714 5.99556Z" fill="#7000DF"/>
<path d="M20.9826 6.27878V6.04375L20.7837 5.92925C18.108 4.39254 15.0768 3.57898 11.9913 3.57898C8.90581 3.57898 5.87456 4.39254 3.2049 5.92925L3 6.04375V6.27878C3.01205 9.36426 3.82561 12.3895 5.36835 15.0531C6.91109 17.7228 9.12878 19.9345 11.7985 21.4772L11.9973 21.5917L12.1962 21.4772C14.8659 19.9405 17.0835 17.7228 18.6263 15.0592C20.1751 12.3895 20.9946 9.36426 21.0007 6.27878H20.9826ZM11.9853 20.6998C6.80865 17.6746 3.49416 12.2629 3.458 6.26673C6.06741 4.80233 9.00223 4.03095 11.9973 4.03095C14.9924 4.03095 17.9272 4.80233 20.5366 6.26673C20.5065 12.275 17.186 17.6746 11.9973 20.6938L11.9853 20.6998Z" fill="#7000DF"/>
<path d="M11.9973 20.6938C6.80865 17.6746 3.49416 12.2629 3.458 6.26673C6.06741 4.80233 9.00826 4.03095 11.9973 4.03095V3.57898C8.91184 3.57898 5.87456 4.38651 3.19887 5.92925L3 6.04375V6.27878C3.00603 9.36426 3.82561 12.3895 5.36835 15.0531C6.91109 17.7228 9.12878 19.9345 11.7985 21.4772L11.9973 21.5917V20.6938Z" fill="#8D33E5"/>
<path d="M17.6505 9.18348C17.6505 9.11719 17.6384 9.04488 17.6143 8.98461C17.4154 8.40609 17.1141 7.86372 16.7345 7.38764C16.6441 7.26108 16.5356 7.14658 16.4392 7.02606L16.3608 6.93566C16.3307 6.8995 16.2885 6.86937 16.2463 6.84527C16.162 6.79705 16.0716 6.77295 15.9751 6.77295C15.9269 6.77898 15.8848 6.785 15.8365 6.80308C15.8124 6.80911 15.7944 6.81513 15.7763 6.82719C15.7763 6.82719 12.504 8.59893 11.9917 8.86409C11.4855 8.59893 8.2313 6.81513 8.15296 6.80911C8.11078 6.79103 8.06257 6.785 8.01436 6.77898C7.91793 6.77898 7.82151 6.80308 7.74317 6.85129C7.70099 6.8754 7.66483 6.90553 7.6347 6.94169L7.55635 7.03208C7.45391 7.14658 7.35749 7.26108 7.26106 7.39366C6.89948 7.85769 6.60419 8.36993 6.39327 8.91833C6.35109 9.00269 6.33301 9.09309 6.33301 9.18348C6.33301 9.27388 6.35109 9.3703 6.38724 9.44864C6.4234 9.53301 6.48367 9.60533 6.55598 9.66559C6.56804 9.67764 6.58009 9.6897 6.59817 9.69572L6.64035 9.72585L6.70061 9.76804L7.21888 10.0874L8.24336 10.7262L9.26783 11.371L10.1175 11.8833L10.1296 15.481V15.8787V16.0776C10.1296 16.1138 10.1296 16.156 10.1296 16.1921C10.1356 16.2584 10.1537 16.3307 10.1778 16.391C10.232 16.5115 10.3104 16.614 10.4128 16.6923C10.5153 16.7706 10.6358 16.8249 10.7624 16.855C10.8889 16.8851 11.0215 16.9153 11.1541 16.9334C11.7085 17.0117 12.2629 17.0117 12.8173 16.9334C13.0162 16.9032 13.0644 16.8912 13.197 16.861C13.3296 16.8309 13.4501 16.7767 13.5526 16.6923C13.655 16.614 13.7394 16.5115 13.7876 16.391C13.8117 16.3247 13.8298 16.2584 13.8358 16.1921C13.8358 16.1499 13.8358 16.1138 13.8358 16.0776C13.8358 16.0776 13.878 12.8294 13.8659 11.8893L14.7096 11.3771L15.7582 10.7262L16.7887 10.0814L17.3009 9.76201C17.4094 9.70778 17.4998 9.62943 17.5601 9.52699C17.6203 9.41851 17.6565 9.30401 17.6505 9.18348Z" fill="#3F017F"/>
<path d="M10.5088 11.6783C10.5088 11.377 10.4425 11.0757 10.3099 10.7985C10.1774 10.5273 9.98452 10.2862 9.74949 10.0994C9.07454 9.56305 8.02596 9.37021 7.00751 9.58716C6.94122 9.59921 6.7544 9.48471 6.68811 9.47266C6.68811 9.47266 6.67003 9.4606 6.70619 9.49074C6.74235 9.52087 6.73632 9.551 6.74235 9.55703L10.5028 11.7145V11.6783H10.5088Z" fill="#F4A900"/>
<path d="M13.7991 9.316C14.6006 9.00263 15.2936 8.1951 15.613 7.20678C15.6371 7.13447 15.7637 7.11639 15.8119 7.06818C15.83 7.05613 15.7697 6.98984 15.7878 6.97778L11.9912 9.16534L12.0394 9.18945C12.3046 9.34011 12.5938 9.43653 12.9012 9.45461C13.2025 9.47871 13.5098 9.4305 13.7931 9.316H13.7991Z" fill="#78B6E4"/>
<path d="M13.42 11.7808C13.1609 11.9315 12.9379 12.1424 12.7691 12.3955C12.6004 12.6486 12.498 12.9319 12.4558 13.2332C12.3353 14.0829 12.6908 15.0833 13.3899 15.8426C13.4441 15.8968 13.4381 16.0053 13.4501 16.0776C13.4501 16.0957 13.4742 16.0957 13.4923 16.1077L13.5104 11.7386L13.42 11.7808Z" fill="#20B5AC"/>
<path d="M12.6364 13.3898C12.6906 13.0885 12.8111 12.8113 12.9859 12.5642C13.1607 12.3172 13.3957 12.1183 13.6609 11.9737L13.5042 11.7326L13.4198 11.7868C13.1607 11.9375 12.9377 12.1484 12.769 12.4015C12.6002 12.6546 12.4978 12.9379 12.4556 13.2392C12.3531 13.9804 12.6123 14.8482 13.1546 15.5654C12.7509 14.9145 12.5641 14.1552 12.6364 13.3898Z" fill="#3F017F"/>
<path d="M13.8353 9.09304C13.5521 9.19549 13.2447 9.23165 12.9434 9.20152C12.6421 9.17139 12.3528 9.06894 12.0937 8.90623L11.9551 9.15933L12.0394 9.21357C12.2986 9.36423 12.5939 9.45462 12.8952 9.4727C13.1965 9.49681 13.4978 9.4486 13.775 9.3341C14.5705 8.97252 15.2093 8.33975 15.5769 7.54427C15.5769 7.53222 15.5227 7.46593 15.4684 7.58646C15.1069 8.25538 14.5344 8.7857 13.8353 9.09304Z" fill="#3F017F"/>
<path d="M9.53257 10.2321C9.75555 10.4129 9.93634 10.6479 10.0508 10.913C10.1653 11.1782 10.2135 11.4675 10.1955 11.7567L10.4847 11.8471L10.5751 11.7507C10.5932 11.1481 10.328 10.3827 9.85197 9.99101C9.29754 9.52096 8.12843 9.36427 7.34501 9.4848C7.31488 9.4848 7.30283 9.53301 7.50772 9.52698C8.24294 9.51493 8.96007 9.76201 9.53257 10.2321Z" fill="#3F017F"/>
<path d="M11.9974 16.6079C11.5936 16.6079 11.1898 16.5537 10.7981 16.4512C10.7138 16.4271 10.6414 16.3789 10.5932 16.3126C10.539 16.2463 10.5089 16.1619 10.5089 16.0776V11.6783C10.5089 11.377 10.4426 11.0757 10.316 10.8045C10.1895 10.5333 9.99663 10.2923 9.7616 10.1055C9.08665 9.56913 8.03807 9.37629 7.01962 9.59324C6.97141 9.60529 6.91717 9.60529 6.86294 9.59926C6.8087 9.59324 6.76049 9.56913 6.7183 9.54503C6.62791 9.49079 6.56162 9.40039 6.53751 9.29795C6.51943 9.2196 6.52546 9.14126 6.55559 9.06894C6.68215 8.70736 6.84486 8.35181 7.03167 8.01434C7.23054 7.66481 7.4716 7.33939 7.76086 7.05615C7.82112 6.99589 7.90549 6.95973 7.98986 6.94767C8.07423 6.93562 8.16462 6.9537 8.23694 6.99589L11.9431 9.12921L12.0396 9.18947C12.3047 9.34013 12.594 9.43655 12.9013 9.45463C13.2026 9.47874 13.51 9.43053 13.7872 9.31C14.5887 8.99663 15.2817 8.1891 15.6011 7.20078C15.6192 7.15257 15.6433 7.10436 15.6734 7.06218C15.7096 7.01999 15.7518 6.98986 15.8 6.96575C15.8482 6.94165 15.8964 6.92357 15.9507 6.91754C16.0049 6.91152 16.0591 6.91754 16.1073 6.93562C16.1797 6.95973 16.2459 7.00191 16.2942 7.06218C16.5473 7.35747 16.7702 7.67084 16.9691 8.00831C17.174 8.35784 17.3307 8.73147 17.4331 9.12318C17.4512 9.20755 17.4452 9.29795 17.4151 9.37629C17.3789 9.45463 17.3247 9.52092 17.2463 9.5631L13.516 11.7145L13.4136 11.7748C13.1544 11.9254 12.9315 12.1364 12.7687 12.3895C12.606 12.6426 12.4915 12.9258 12.4554 13.2211C12.3348 14.0708 12.6904 15.0712 13.3895 15.8305C13.4377 15.8847 13.4738 15.951 13.4859 16.0173C13.4979 16.0896 13.4979 16.1619 13.4738 16.2282C13.4497 16.2945 13.4075 16.3548 13.3533 16.403C13.293 16.4512 13.2267 16.4813 13.1544 16.4934C12.7687 16.5657 12.3831 16.6019 11.9974 16.6079Z" fill="white"/>
</svg>
