<svg width="220" height="37" viewBox="0 0 220 37" fill="none" xmlns="http://www.w3.org/2000/svg">
<rect x="0.5" y="1.33008" width="219" height="35" rx="0.5" stroke="url(#paint0_linear_57_49)"/>
<path d="M77.4875 16.4403C77.4353 15.977 77.22 15.6181 76.8416 15.3636C76.4631 15.1059 75.9868 14.977 75.4125 14.977C75.0014 14.977 74.6458 15.0422 74.3457 15.1728C74.0455 15.3 73.8122 15.4762 73.6458 15.7013C73.4827 15.9232 73.4011 16.176 73.4011 16.4599C73.4011 16.698 73.4566 16.9036 73.5675 17.0765C73.6817 17.2494 73.8302 17.3946 74.0129 17.512C74.1988 17.6262 74.3979 17.7225 74.6099 17.8008C74.822 17.8758 75.0259 17.9378 75.2217 17.9867L76.2005 18.2412C76.5202 18.3195 76.8481 18.4256 77.1841 18.5593C77.5202 18.6931 77.8318 18.8693 78.1189 19.0879C78.406 19.3065 78.6376 19.5773 78.8138 19.9003C78.9932 20.2233 79.083 20.6099 79.083 21.0601C79.083 21.6278 78.9361 22.1319 78.6425 22.5723C78.3521 23.0128 77.9296 23.3603 77.375 23.6147C76.8236 23.8692 76.1564 23.9965 75.3734 23.9965C74.623 23.9965 73.9737 23.8774 73.4256 23.6392C72.8775 23.401 72.4485 23.0634 72.1385 22.6262C71.8286 22.1857 71.6573 21.6637 71.6246 21.0601H73.1418C73.1711 21.4223 73.2886 21.7241 73.4941 21.9655C73.7029 22.2037 73.9688 22.3815 74.2918 22.4989C74.6181 22.6131 74.9753 22.6702 75.3636 22.6702C75.791 22.6702 76.1711 22.6033 76.5039 22.4696C76.8399 22.3325 77.1042 22.1433 77.2967 21.9019C77.4892 21.6572 77.5854 21.3717 77.5854 21.0454C77.5854 20.7485 77.5006 20.5055 77.3309 20.3163C77.1646 20.127 76.9378 19.9704 76.6507 19.8464C76.3668 19.7225 76.0455 19.6132 75.6866 19.5185L74.5023 19.1955C73.6997 18.977 73.0635 18.6556 72.5936 18.2314C72.1271 17.8073 71.8938 17.2461 71.8938 16.5479C71.8938 15.9705 72.0504 15.4664 72.3636 15.0357C72.6768 14.6051 73.101 14.2706 73.636 14.0325C74.1711 13.791 74.7747 13.6703 75.4468 13.6703C76.1254 13.6703 76.7241 13.7894 77.2429 14.0276C77.7649 14.2657 78.176 14.5936 78.4761 15.0113C78.7763 15.4256 78.9329 15.9019 78.9459 16.4403H77.4875ZM80.7726 23.8301V16.313H82.2359V23.8301H80.7726ZM81.5116 15.1532C81.2571 15.1532 81.0385 15.0683 80.8558 14.8987C80.6763 14.7258 80.5866 14.5202 80.5866 14.2821C80.5866 14.0406 80.6763 13.8351 80.8558 13.6654C81.0385 13.4925 81.2571 13.4061 81.5116 13.4061C81.766 13.4061 81.983 13.4925 82.1625 13.6654C82.3452 13.8351 82.4365 14.0406 82.4365 14.2821C82.4365 14.5202 82.3452 14.7258 82.1625 14.8987C81.983 15.0683 81.766 15.1532 81.5116 15.1532ZM87.3561 26.8056C86.7591 26.8056 86.2452 26.7273 85.8145 26.5707C85.3871 26.4141 85.038 26.2069 84.7672 25.9491C84.4964 25.6914 84.2942 25.4092 84.1604 25.1025L85.4181 24.5837C85.5062 24.7273 85.6237 24.879 85.7705 25.0389C85.9206 25.202 86.1229 25.3407 86.3773 25.4549C86.6351 25.569 86.9662 25.6261 87.3708 25.6261C87.9254 25.6261 88.3838 25.4907 88.746 25.2199C89.1081 24.9524 89.2892 24.525 89.2892 23.9377V22.4598H89.1962C89.1081 22.6197 88.9809 22.7975 88.8145 22.9932C88.6514 23.189 88.4263 23.3586 88.1391 23.5022C87.852 23.6457 87.4785 23.7175 87.0184 23.7175C86.4246 23.7175 85.8896 23.5789 85.4132 23.3015C84.9402 23.021 84.565 22.6082 84.2876 22.0634C84.0136 21.5153 83.8765 20.8415 83.8765 20.0422C83.8765 19.2429 84.0119 18.5577 84.2827 17.9867C84.5568 17.4158 84.932 16.9786 85.4083 16.6752C85.8847 16.3685 86.4246 16.2152 87.0282 16.2152C87.4948 16.2152 87.8716 16.2935 88.1587 16.4501C88.4458 16.6034 88.6693 16.7828 88.8292 16.9884C88.9923 17.1939 89.1179 17.375 89.206 17.5316H89.3137V16.313H90.7476V23.9965C90.7476 24.6425 90.5975 25.1726 90.2974 25.587C89.9972 26.0013 89.591 26.308 89.0788 26.507C88.5698 26.7061 87.9956 26.8056 87.3561 26.8056ZM87.3414 22.5038C87.7623 22.5038 88.1179 22.406 88.4083 22.2102C88.7019 22.0112 88.9238 21.7273 89.0739 21.3587C89.2272 20.9867 89.3039 20.5414 89.3039 20.0226C89.3039 19.5169 89.2289 19.0716 89.0788 18.6866C88.9287 18.3016 88.7085 18.0014 88.4181 17.7861C88.1277 17.5675 87.7688 17.4582 87.3414 17.4582C86.901 17.4582 86.5339 17.5724 86.2403 17.8008C85.9467 18.0259 85.7248 18.3326 85.5747 18.7208C85.4279 19.1091 85.3545 19.543 85.3545 20.0226C85.3545 20.5153 85.4295 20.9476 85.5796 21.3195C85.7297 21.6914 85.9516 21.9818 86.2452 22.1906C86.5421 22.3994 86.9075 22.5038 87.3414 22.5038ZM94.1733 19.3668V23.8301H92.7101V16.313H94.1146V17.5365H94.2076C94.3805 17.1385 94.6513 16.8187 95.02 16.5773C95.3919 16.3359 95.8601 16.2152 96.4245 16.2152C96.9368 16.2152 97.3854 16.3228 97.7704 16.5382C98.1553 16.7502 98.4539 17.0667 98.6659 17.4876C98.878 17.9084 98.984 18.4288 98.984 19.0487V23.8301H97.5208V19.2249C97.5208 18.6801 97.3788 18.2543 97.095 17.9476C96.8112 17.6377 96.4213 17.4827 95.9254 17.4827C95.586 17.4827 95.2843 17.5561 95.02 17.7029C94.759 17.8497 94.5518 18.0651 94.3985 18.3489C94.2484 18.6295 94.1733 18.9688 94.1733 19.3668ZM105.375 18.9606V20.2282H100.932V18.9606H105.375ZM113.888 13.8074H115.406V20.3994C115.406 21.1009 115.241 21.7224 114.911 22.264C114.582 22.8024 114.118 23.2265 113.521 23.5364C112.924 23.8431 112.225 23.9965 111.422 23.9965C110.623 23.9965 109.924 23.8431 109.327 23.5364C108.73 23.2265 108.267 22.8024 107.937 22.264C107.608 21.7224 107.443 21.1009 107.443 20.3994V13.8074H108.955V20.2771C108.955 20.7306 109.055 21.1335 109.254 21.4859C109.456 21.8383 109.742 22.1156 110.11 22.3179C110.479 22.5169 110.916 22.6164 111.422 22.6164C111.931 22.6164 112.37 22.5169 112.738 22.3179C113.11 22.1156 113.394 21.8383 113.59 21.4859C113.789 21.1335 113.888 20.7306 113.888 20.2771V13.8074ZM117.487 26.649V16.313H118.916V17.5316H119.038C119.123 17.375 119.245 17.1939 119.405 16.9884C119.565 16.7828 119.787 16.6034 120.071 16.4501C120.355 16.2935 120.73 16.2152 121.196 16.2152C121.803 16.2152 122.345 16.3685 122.821 16.6752C123.297 16.9819 123.671 17.424 123.942 18.0014C124.216 18.5789 124.353 19.2738 124.353 20.0862C124.353 20.8986 124.217 21.5952 123.947 22.1759C123.676 22.7534 123.304 23.1988 122.831 23.512C122.358 23.8219 121.818 23.9769 121.211 23.9769C120.754 23.9769 120.381 23.9002 120.09 23.7469C119.803 23.5935 119.578 23.4141 119.415 23.2086C119.252 23.003 119.126 22.8203 119.038 22.6604H118.95V26.649H117.487ZM118.921 20.0716C118.921 20.6001 118.997 21.0634 119.151 21.4614C119.304 21.8595 119.526 22.171 119.816 22.3962C120.107 22.618 120.462 22.7289 120.883 22.7289C121.32 22.7289 121.686 22.6131 121.979 22.3815C122.273 22.1466 122.495 21.8285 122.645 21.4272C122.798 21.0259 122.875 20.574 122.875 20.0716C122.875 19.5756 122.8 19.1303 122.65 18.7355C122.503 18.3407 122.281 18.0292 121.984 17.8008C121.691 17.5724 121.324 17.4582 120.883 17.4582C120.459 17.4582 120.1 17.5675 119.806 17.7861C119.516 18.0047 119.296 18.3097 119.146 18.7013C118.996 19.0928 118.921 19.5495 118.921 20.0716Z" fill="#EFEFE5" fill-opacity="0.6"/>
<g opacity="0.6" clip-path="url(#clip0_57_49)">
<g clip-path="url(#clip1_57_49)">
<g clip-path="url(#clip2_57_49)">
<mask id="mask0_57_49" style="mask-type:luminance" maskUnits="userSpaceOnUse" x="137" y="13" width="7" height="12">
<path d="M143.803 13.9735H137.535V24.6402H143.803V13.9735Z" fill="white"/>
</mask>
<g mask="url(#mask0_57_49)">
<path d="M138.337 24.6401C138.092 24.5467 137.934 24.3456 137.757 24.1693C137.461 23.8761 137.462 23.5427 137.756 23.2484C139.044 21.9598 140.332 20.671 141.622 19.3849C141.689 19.3183 141.682 19.289 141.62 19.2268C140.33 17.9404 139.042 16.6516 137.754 15.363C137.526 15.135 137.468 14.8621 137.626 14.6205C137.77 14.3995 137.962 14.2121 138.18 14.0639C138.39 13.9213 138.65 13.9539 138.847 14.116C138.876 14.1402 138.905 14.166 138.932 14.1928C140.483 15.7437 142.034 17.2945 143.585 18.8456C143.816 19.0772 143.865 19.3468 143.723 19.5996C143.687 19.6637 143.636 19.7164 143.585 19.7679C142.034 21.3191 140.482 22.8694 138.933 24.4218C138.828 24.5272 138.706 24.5975 138.566 24.6404C138.49 24.6401 138.414 24.6401 138.337 24.6401Z" fill="white"/>
</g>
</g>
</g>
</g>
<defs>
<linearGradient id="paint0_linear_57_49" x1="-2.95114e-06" y1="9.99675" x2="67.7028" y2="119.691" gradientUnits="userSpaceOnUse">
<stop offset="0.0250287" stop-color="#FF00E3"/>
<stop offset="0.33326" stop-color="#CE0DB9" stop-opacity="0.788449"/>
<stop offset="0.5" stop-opacity="0.33"/>
<stop offset="0.7443" stop-color="#0944C9" stop-opacity="0.683417"/>
<stop offset="1" stop-color="#004FFF"/>
</linearGradient>
<clipPath id="clip0_57_49">
<rect width="16" height="12" fill="white" transform="translate(133.06 12.8301)"/>
</clipPath>
<clipPath id="clip1_57_49">
<rect width="16" height="12" fill="white" transform="translate(133.06 12.8301)"/>
</clipPath>
<clipPath id="clip2_57_49">
<rect width="8.57143" height="12" fill="white" transform="translate(136.773 12.8301)"/>
</clipPath>
</defs>
</svg>
