<svg width="396" height="273" viewBox="0 0 396 273" fill="none" xmlns="http://www.w3.org/2000/svg">
<g clip-path="url(#clip0_671_2712)">
<mask id="mask0_671_2712" style="mask-type:luminance" maskUnits="userSpaceOnUse" x="0" y="0" width="396" height="273">
<path d="M374.449 0H21.551C9.64872 0 0 9.64872 0 21.551V250.531C0 262.433 9.64872 272.082 21.551 272.082H374.449C386.351 272.082 396 262.433 396 250.531V21.551C396 9.64872 386.351 0 374.449 0Z" fill="white"/>
</mask>
<g mask="url(#mask0_671_2712)">
<path d="M374.449 0H21.551C9.64872 0 0 9.64872 0 21.551V250.531C0 262.433 9.64872 272.082 21.551 272.082H374.449C386.351 272.082 396 262.433 396 250.531V21.551C396 9.64872 386.351 0 374.449 0Z" fill="url(#paint0_linear_671_2712)"/>
<g opacity="0.15">
<path d="M253.238 134.721C251.014 134.721 249.211 136.524 249.211 138.748C249.211 140.972 251.014 142.775 253.238 142.775C255.462 142.775 257.265 140.972 257.265 138.748C257.265 136.524 255.462 134.721 253.238 134.721Z" fill="#004FFF"/>
<path d="M253.238 97.6737C251.014 97.6737 249.211 99.4766 249.211 101.701C249.211 103.925 251.014 105.728 253.238 105.728C255.462 105.728 257.265 103.925 257.265 101.701C257.265 99.4766 255.462 97.6737 253.238 97.6737Z" fill="#004FFF"/>
<path d="M253.238 60.6258C251.014 60.6258 249.211 62.4287 249.211 64.6528C249.211 66.8768 251.014 68.6797 253.238 68.6797C255.462 68.6797 257.265 66.8768 257.265 64.6528C257.265 62.4287 255.462 60.6258 253.238 60.6258Z" fill="#004FFF"/>
<path d="M253.238 23.5785C251.014 23.5785 249.211 25.3814 249.211 27.6054C249.211 29.8294 251.014 31.6323 253.238 31.6323C255.462 31.6323 257.265 29.8294 257.265 27.6054C257.265 25.3814 255.462 23.5785 253.238 23.5785Z" fill="#004FFF"/>
<path d="M216.191 134.721C213.967 134.721 212.164 136.524 212.164 138.748C212.164 140.972 213.967 142.775 216.191 142.775C218.415 142.775 220.218 140.972 220.218 138.748C220.218 136.524 218.415 134.721 216.191 134.721Z" fill="#004FFF"/>
<path d="M216.191 97.6737C213.967 97.6737 212.164 99.4766 212.164 101.701C212.164 103.925 213.967 105.728 216.191 105.728C218.415 105.728 220.218 103.925 220.218 101.701C220.218 99.4766 218.415 97.6737 216.191 97.6737Z" fill="#004FFF"/>
<path d="M216.191 60.6258C213.967 60.6258 212.164 62.4287 212.164 64.6528C212.164 66.8768 213.967 68.6797 216.191 68.6797C218.415 68.6797 220.218 66.8768 220.218 64.6528C220.218 62.4287 218.415 60.6258 216.191 60.6258Z" fill="#004FFF"/>
<path d="M216.191 23.5785C213.967 23.5785 212.164 25.3814 212.164 27.6054C212.164 29.8294 213.967 31.6323 216.191 31.6323C218.415 31.6323 220.218 29.8294 220.218 27.6054C220.218 25.3814 218.415 23.5785 216.191 23.5785Z" fill="#004FFF"/>
<path d="M179.143 134.721C176.919 134.721 175.116 136.524 175.116 138.748C175.116 140.972 176.919 142.775 179.143 142.775C181.367 142.775 183.17 140.972 183.17 138.748C183.17 136.524 181.367 134.721 179.143 134.721Z" fill="#004FFF"/>
<path d="M179.143 97.6737C176.919 97.6737 175.116 99.4766 175.116 101.701C175.116 103.925 176.919 105.728 179.143 105.728C181.367 105.728 183.17 103.925 183.17 101.701C183.17 99.4766 181.367 97.6737 179.143 97.6737Z" fill="#004FFF"/>
<path d="M179.143 60.6258C176.919 60.6258 175.116 62.4287 175.116 64.6528C175.116 66.8768 176.919 68.6797 179.143 68.6797C181.367 68.6797 183.17 66.8768 183.17 64.6528C183.17 62.4287 181.367 60.6258 179.143 60.6258Z" fill="#004FFF"/>
<path d="M179.143 23.5785C176.919 23.5785 175.116 25.3814 175.116 27.6054C175.116 29.8294 176.919 31.6323 179.143 31.6323C181.367 31.6323 183.17 29.8294 183.17 27.6054C183.17 25.3814 181.367 23.5785 179.143 23.5785Z" fill="#004FFF"/>
<path d="M142.095 134.721C139.871 134.721 138.068 136.524 138.068 138.748C138.068 140.972 139.871 142.775 142.095 142.775C144.319 142.775 146.122 140.972 146.122 138.748C146.122 136.524 144.319 134.721 142.095 134.721Z" fill="#004FFF"/>
<path d="M142.095 97.6737C139.871 97.6737 138.068 99.4766 138.068 101.701C138.068 103.925 139.871 105.728 142.095 105.728C144.319 105.728 146.122 103.925 146.122 101.701C146.122 99.4766 144.319 97.6737 142.095 97.6737Z" fill="#004FFF"/>
<path d="M142.095 60.6258C139.871 60.6258 138.068 62.4287 138.068 64.6528C138.068 66.8768 139.871 68.6797 142.095 68.6797C144.319 68.6797 146.122 66.8768 146.122 64.6528C146.122 62.4287 144.319 60.6258 142.095 60.6258Z" fill="#004FFF"/>
<path d="M142.095 23.5785C139.871 23.5785 138.068 25.3814 138.068 27.6054C138.068 29.8294 139.871 31.6323 142.095 31.6323C144.319 31.6323 146.122 29.8294 146.122 27.6054C146.122 25.3814 144.319 23.5785 142.095 23.5785Z" fill="#004FFF"/>
<path d="M105.047 134.721C102.823 134.721 101.02 136.524 101.02 138.748C101.02 140.972 102.823 142.775 105.047 142.775C107.271 142.775 109.074 140.972 109.074 138.748C109.074 136.524 107.271 134.721 105.047 134.721Z" fill="#004FFF"/>
<path d="M105.047 97.6737C102.823 97.6737 101.02 99.4766 101.02 101.701C101.02 103.925 102.823 105.728 105.047 105.728C107.271 105.728 109.074 103.925 109.074 101.701C109.074 99.4766 107.271 97.6737 105.047 97.6737Z" fill="#004FFF"/>
<path d="M105.047 60.6258C102.823 60.6258 101.02 62.4287 101.02 64.6528C101.02 66.8768 102.823 68.6797 105.047 68.6797C107.271 68.6797 109.074 66.8768 109.074 64.6528C109.074 62.4287 107.271 60.6258 105.047 60.6258Z" fill="#004FFF"/>
<path d="M105.047 23.578C102.823 23.578 101.02 25.3809 101.02 27.6049C101.02 29.8289 102.823 31.6318 105.047 31.6318C107.271 31.6318 109.074 29.8289 109.074 27.6049C109.074 25.3809 107.271 23.578 105.047 23.578Z" fill="#004FFF"/>
</g>
<g opacity="0.8" filter="url(#filter0_f_671_2712)">
<path d="M22.3908 366.367H145.325C169.844 366.367 205.714 352.584 205.714 289.194C205.714 236.015 167.776 216.139 143.816 216.139H-11.7549M-11.7423 328.148C-11.7423 328.148 100.753 329.821 138.196 328.148C150.678 327.59 167.46 313.352 167.46 289.853C167.46 266.354 150.234 254.345 139.326 254.345H-11.7423M25.3856 292.389H69.0057M-11.7424 177.921H69.1697M25.3856 140.082H69.0057" stroke="url(#paint1_linear_671_2712)" stroke-width="2.69388" stroke-miterlimit="10" stroke-linecap="round"/>
</g>
<path opacity="0.5" d="M22.3908 366.367H145.325C169.844 366.367 205.714 352.584 205.714 289.194C205.714 236.015 167.776 216.139 143.816 216.139H-11.7549M-11.7423 328.148C-11.7423 328.148 100.753 329.821 138.196 328.148C150.678 327.59 167.46 313.352 167.46 289.853C167.46 266.354 150.234 254.345 139.326 254.345H-11.7423M25.3856 292.389H69.0057M-11.7424 177.921H69.1697M25.3856 140.082H69.0057" stroke="url(#paint2_linear_671_2712)" stroke-width="1.34694" stroke-miterlimit="10" stroke-linecap="round"/>
</g>
</g>
<rect x="0.673469" y="0.673469" width="394.653" height="270.735" rx="11.3265" stroke="url(#paint3_linear_671_2712)" stroke-width="1.34694"/>
<defs>
<filter id="filter0_f_671_2712" x="-22.5306" y="129.306" width="239.021" height="247.837" filterUnits="userSpaceOnUse" color-interpolation-filters="sRGB">
<feFlood flood-opacity="0" result="BackgroundImageFix"/>
<feBlend mode="normal" in="SourceGraphic" in2="BackgroundImageFix" result="shape"/>
<feGaussianBlur stdDeviation="4.71429" result="effect1_foregroundBlur_671_2712"/>
</filter>
<linearGradient id="paint0_linear_671_2712" x1="243.692" y1="263.736" x2="295.447" y2="19.8135" gradientUnits="userSpaceOnUse">
<stop stop-color="#110629"/>
<stop offset="1" stop-color="#160737"/>
</linearGradient>
<linearGradient id="paint1_linear_671_2712" x1="-11.7549" y1="156.559" x2="253.277" y2="245.487" gradientUnits="userSpaceOnUse">
<stop offset="0.174" stop-color="#3E985B"/>
<stop offset="0.9999" stop-color="#44DD67"/>
<stop offset="1" stop-color="#293335"/>
</linearGradient>
<linearGradient id="paint2_linear_671_2712" x1="-11.7549" y1="156.559" x2="253.277" y2="245.487" gradientUnits="userSpaceOnUse">
<stop offset="0.174" stop-color="#3E985B"/>
<stop offset="0.9999" stop-color="#44DD67"/>
<stop offset="1" stop-color="#293335"/>
</linearGradient>
<linearGradient id="paint3_linear_671_2712" x1="-5.31206e-06" y1="69.2801" x2="384.524" y2="217.661" gradientUnits="userSpaceOnUse">
<stop offset="0.0250287" stop-color="#44DD68"/>
<stop offset="0.33326" stop-color="#35503B"/>
<stop offset="0.5" stop-opacity="0.33"/>
<stop offset="0.7443" stop-color="#42815A"/>
<stop offset="1" stop-color="#65E898"/>
</linearGradient>
<clipPath id="clip0_671_2712">
<rect width="396" height="272.082" rx="12" fill="white"/>
</clipPath>
</defs>
</svg>
