<svg width="776" height="144" viewBox="0 0 776 144" fill="none" xmlns="http://www.w3.org/2000/svg">
<path d="M114.092 47V3.8H122.792V21.02H132.092L146.492 3.8H155.732V6.56L139.892 25.4L155.732 44.24V47H146.492L132.092 29.78H122.792V47H114.092ZM170.004 47C168.484 47 167.084 46.62 165.804 45.86C164.524 45.06 163.484 44.02 162.684 42.74C161.924 41.46 161.544 40.06 161.544 38.54V20.66C161.544 19.14 161.924 17.74 162.684 16.46C163.484 15.18 164.524 14.16 165.804 13.4C167.084 12.6 168.484 12.2 170.004 12.2H188.364C189.924 12.2 191.344 12.6 192.624 13.4C193.904 14.16 194.924 15.18 195.684 16.46C196.444 17.74 196.824 19.14 196.824 20.66V33.92H170.064V38.12C170.064 38.2 170.104 38.28 170.184 38.36C170.264 38.44 170.344 38.48 170.424 38.48H196.824V47H170.004ZM170.064 26.3H188.304V21.08C188.304 21 188.264 20.92 188.184 20.84C188.104 20.76 188.024 20.72 187.944 20.72H170.424C170.344 20.72 170.264 20.76 170.184 20.84C170.104 20.92 170.064 21 170.064 21.08V26.3ZM207.66 59.66V51.08H228.48C228.56 51.08 228.64 51.04 228.72 50.96C228.8 50.88 228.84 50.8 228.84 50.72V47H210.54C208.98 47 207.56 46.62 206.28 45.86C205 45.06 203.96 44.02 203.16 42.74C202.4 41.46 202.02 40.06 202.02 38.54V12.32H210.54V38.12C210.54 38.2 210.58 38.28 210.66 38.36C210.74 38.44 210.82 38.48 210.9 38.48H228.48C228.56 38.48 228.64 38.44 228.72 38.36C228.8 38.28 228.84 38.2 228.84 38.12V12.32H237.36V51.2C237.36 52.76 236.98 54.18 236.22 55.46C235.5 56.74 234.48 57.76 233.16 58.52C231.88 59.28 230.46 59.66 228.9 59.66H207.66ZM262.98 47V3.8H302.82V12.5H271.74V21.02H296.76V29.78H271.74V47H262.98ZM314.379 47C312.859 47 311.459 46.62 310.179 45.86C308.899 45.06 307.859 44.02 307.059 42.74C306.299 41.46 305.919 40.06 305.919 38.54V20.66C305.919 19.14 306.299 17.74 307.059 16.46C307.859 15.18 308.899 14.16 310.179 13.4C311.459 12.6 312.859 12.2 314.379 12.2H332.739C334.299 12.2 335.719 12.6 336.999 13.4C338.279 14.16 339.299 15.18 340.059 16.46C340.819 17.74 341.199 19.14 341.199 20.66V33.92H314.439V38.12C314.439 38.2 314.479 38.28 314.559 38.36C314.639 38.44 314.719 38.48 314.799 38.48H341.199V47H314.379ZM314.439 26.3H332.679V21.08C332.679 21 332.639 20.92 332.559 20.84C332.479 20.76 332.399 20.72 332.319 20.72H314.799C314.719 20.72 314.639 20.76 314.559 20.84C314.479 20.92 314.439 21 314.439 21.08V26.3ZM355.982 47C354.462 47 353.042 46.62 351.722 45.86C350.442 45.06 349.422 44.02 348.662 42.74C347.902 41.46 347.522 40.06 347.522 38.54V25.28H374.282V21.08C374.282 21 374.242 20.92 374.162 20.84C374.082 20.76 374.002 20.72 373.922 20.72H347.522V12.2H374.342C375.902 12.2 377.322 12.6 378.602 13.4C379.882 14.16 380.902 15.18 381.662 16.46C382.422 17.74 382.802 19.14 382.802 20.66V47H355.982ZM356.402 38.48H374.282V32.9H356.042V38.12C356.042 38.2 356.082 38.28 356.162 38.36C356.242 38.44 356.322 38.48 356.402 38.48ZM397.763 47C396.203 47 394.783 46.62 393.503 45.86C392.223 45.06 391.183 44.02 390.383 42.74C389.623 41.46 389.243 40.06 389.243 38.54V1.7H397.763V12.2H411.023V20.72H397.763V38.12C397.763 38.2 397.803 38.28 397.883 38.36C397.963 38.44 398.043 38.48 398.123 38.48H411.023V47H397.763ZM424.421 47C422.901 47 421.481 46.62 420.161 45.86C418.881 45.06 417.861 44.02 417.101 42.74C416.341 41.46 415.961 40.06 415.961 38.54V12.2H424.481V38.12C424.481 38.2 424.521 38.28 424.601 38.36C424.681 38.44 424.761 38.48 424.841 38.48H442.361C442.441 38.48 442.521 38.44 442.601 38.36C442.681 38.28 442.721 38.2 442.721 38.12V12.2H451.241V38.54C451.241 40.06 450.861 41.46 450.101 42.74C449.341 44.02 448.321 45.06 447.041 45.86C445.761 46.62 444.341 47 442.781 47H424.421ZM457.62 47V20.66C457.62 19.14 458 17.74 458.76 16.46C459.56 15.18 460.6 14.16 461.88 13.4C463.2 12.6 464.62 12.2 466.14 12.2H485.4V20.72H466.5C466.42 20.72 466.34 20.76 466.26 20.84C466.18 20.92 466.14 21 466.14 21.08V47H457.62ZM498.012 47C496.492 47 495.092 46.62 493.812 45.86C492.532 45.06 491.492 44.02 490.692 42.74C489.932 41.46 489.552 40.06 489.552 38.54V20.66C489.552 19.14 489.932 17.74 490.692 16.46C491.492 15.18 492.532 14.16 493.812 13.4C495.092 12.6 496.492 12.2 498.012 12.2H516.372C517.932 12.2 519.352 12.6 520.632 13.4C521.912 14.16 522.932 15.18 523.692 16.46C524.452 17.74 524.832 19.14 524.832 20.66V33.92H498.072V38.12C498.072 38.2 498.112 38.28 498.192 38.36C498.272 38.44 498.352 38.48 498.432 38.48H524.832V47H498.012ZM498.072 26.3H516.312V21.08C516.312 21 516.272 20.92 516.192 20.84C516.112 20.76 516.032 20.72 515.952 20.72H498.432C498.352 20.72 498.272 20.76 498.192 20.84C498.112 20.92 498.072 21 498.072 21.08V26.3ZM538.848 47C537.328 47 535.928 46.62 534.648 45.86C533.368 45.06 532.328 44.02 531.528 42.74C530.768 41.46 530.388 40.06 530.388 38.54V36.98H538.908V38.12C538.908 38.2 538.948 38.28 539.028 38.36C539.108 38.44 539.188 38.48 539.268 38.48H556.788C556.868 38.48 556.948 38.44 557.028 38.36C557.108 38.28 557.148 38.2 557.148 38.12V34.22C557.148 34.14 557.108 34.08 557.028 34.04C556.948 33.96 556.868 33.92 556.788 33.92H538.848C537.328 33.92 535.928 33.54 534.648 32.78C533.368 31.98 532.328 30.94 531.528 29.66C530.768 28.38 530.388 26.96 530.388 25.4V20.66C530.388 19.14 530.768 17.74 531.528 16.46C532.328 15.18 533.368 14.16 534.648 13.4C535.928 12.6 537.328 12.2 538.848 12.2H557.208C558.768 12.2 560.188 12.6 561.468 13.4C562.748 14.16 563.768 15.18 564.528 16.46C565.328 17.74 565.728 19.14 565.728 20.66V22.22H557.148V21.08C557.148 21 557.108 20.92 557.028 20.84C556.948 20.76 556.868 20.72 556.788 20.72H539.268C539.188 20.72 539.108 20.76 539.028 20.84C538.948 20.92 538.908 21 538.908 21.08V24.98C538.908 25.06 538.948 25.14 539.028 25.22C539.108 25.26 539.188 25.28 539.268 25.28H557.208C558.768 25.28 560.188 25.68 561.468 26.48C562.748 27.24 563.768 28.26 564.528 29.54C565.328 30.82 565.728 32.24 565.728 33.8V38.54C565.728 40.06 565.328 41.46 564.528 42.74C563.768 44.02 562.748 45.06 561.468 45.86C560.188 46.62 558.768 47 557.208 47H538.848ZM599.446 47C597.846 47 596.386 46.62 595.066 45.86C593.786 45.06 592.746 44.02 591.946 42.74C591.186 41.42 590.806 39.96 590.806 38.36V12.44C590.806 10.84 591.186 9.4 591.946 8.12C592.746 6.8 593.786 5.76 595.066 5C596.386 4.2 597.846 3.8 599.446 3.8H625.366C626.926 3.8 628.346 4.2 629.626 5C630.946 5.76 632.006 6.8 632.806 8.12C633.606 9.4 634.006 10.84 634.006 12.44V38.36C634.006 39.96 633.606 41.42 632.806 42.74C632.006 44.02 630.946 45.06 629.626 45.86C628.346 46.62 626.926 47 625.366 47H599.446ZM599.806 38.3H624.886C625.006 38.3 625.086 38.28 625.126 38.24C625.206 38.16 625.246 38.06 625.246 37.94V12.86C625.246 12.74 625.206 12.66 625.126 12.62C625.086 12.54 625.006 12.5 624.886 12.5H599.806C599.686 12.5 599.586 12.54 599.506 12.62C599.466 12.66 599.446 12.74 599.446 12.86V37.94C599.446 38.06 599.466 38.16 599.506 38.24C599.586 38.28 599.686 38.3 599.806 38.3ZM640.434 47V9.26C640.434 7.74 640.814 6.34 641.574 5.06C642.374 3.78 643.414 2.76 644.694 2C645.974 1.2 647.394 0.799998 648.954 0.799998H662.214V9.38H649.314C649.234 9.38 649.154 9.42 649.074 9.5C648.994 9.58 648.954 9.66 648.954 9.74V12.2H662.214V20.72H648.954V47H640.434Z" fill="white"/>
<path d="M11.0919 127C9.17194 127 7.41994 126.544 5.83594 125.632C4.29994 124.672 3.05194 123.424 2.09194 121.888C1.17994 120.304 0.723938 118.552 0.723938 116.632V85.528C0.723938 83.608 1.17994 81.88 2.09194 80.344C3.05194 78.76 4.29994 77.512 5.83594 76.6C7.41994 75.64 9.17194 75.16 11.0919 75.16H42.1959C44.0679 75.16 45.7719 75.64 47.3079 76.6C48.8919 77.512 50.1639 78.76 51.1239 80.344C52.0839 81.88 52.5639 83.608 52.5639 85.528V116.632C52.5639 118.552 52.0839 120.304 51.1239 121.888C50.1639 123.424 48.8919 124.672 47.3079 125.632C45.7719 126.544 44.0679 127 42.1959 127H11.0919ZM11.5239 116.56H41.6199C41.7639 116.56 41.8599 116.536 41.9079 116.488C42.0039 116.392 42.0519 116.272 42.0519 116.128V86.032C42.0519 85.888 42.0039 85.792 41.9079 85.744C41.8599 85.648 41.7639 85.6 41.6199 85.6H11.5239C11.3799 85.6 11.2599 85.648 11.1639 85.744C11.1159 85.792 11.0919 85.888 11.0919 86.032V116.128C11.0919 116.272 11.1159 116.392 11.1639 116.488C11.2599 116.536 11.3799 116.56 11.5239 116.56ZM57.4526 127V123.76L76.4606 101.08L57.4526 78.4V75.16H68.4686L83.3726 92.872L98.2046 75.16H109.149V78.4L90.1406 101.08L109.221 123.688V127H98.2046L83.2286 109.36L68.4686 127H57.4526ZM125.271 127C123.447 127 121.743 126.544 120.159 125.632C118.623 124.672 117.399 123.424 116.487 121.888C115.575 120.352 115.119 118.672 115.119 116.848V100.936H147.231V95.896C147.231 95.8 147.183 95.704 147.087 95.608C146.991 95.512 146.895 95.464 146.799 95.464H115.119V85.24H147.303C149.175 85.24 150.879 85.72 152.415 86.68C153.951 87.592 155.175 88.816 156.087 90.352C156.999 91.888 157.455 93.568 157.455 95.392V127H125.271ZM125.775 116.776H147.231V110.08H125.343V116.344C125.343 116.44 125.391 116.536 125.487 116.632C125.583 116.728 125.679 116.776 125.775 116.776ZM173.505 127C171.681 127 170.001 126.544 168.465 125.632C166.929 124.672 165.681 123.424 164.721 121.888C163.809 120.352 163.353 118.672 163.353 116.848V71.488H173.649V116.344C173.649 116.44 173.697 116.536 173.793 116.632C173.889 116.728 173.985 116.776 174.081 116.776H182.289V127H173.505ZM187.404 143.56V85.24H219.588C221.46 85.24 223.164 85.72 224.7 86.68C226.236 87.592 227.46 88.816 228.372 90.352C229.284 91.888 229.74 93.568 229.74 95.392V116.848C229.74 118.672 229.284 120.352 228.372 121.888C227.46 123.424 226.236 124.672 224.7 125.632C223.164 126.544 221.46 127 219.588 127H197.628V143.56H187.404ZM198.06 116.776H219.084C219.228 116.776 219.324 116.728 219.372 116.632C219.468 116.536 219.516 116.44 219.516 116.344V95.896C219.516 95.8 219.468 95.704 219.372 95.608C219.324 95.512 219.228 95.464 219.084 95.464H198.06C197.964 95.464 197.868 95.512 197.772 95.608C197.676 95.704 197.628 95.8 197.628 95.896V116.344C197.628 116.44 197.676 116.536 197.772 116.632C197.868 116.728 197.964 116.776 198.06 116.776ZM235.216 127V71.56H245.44V85.24H267.4C269.224 85.24 270.904 85.72 272.44 86.68C273.976 87.592 275.2 88.816 276.112 90.352C277.072 91.888 277.552 93.568 277.552 95.392V127H267.328V95.896C267.328 95.8 267.28 95.704 267.184 95.608C267.136 95.512 267.04 95.464 266.896 95.464H245.872C245.776 95.464 245.68 95.512 245.584 95.608C245.488 95.704 245.44 95.8 245.44 95.896V127H235.216ZM293.388 127C291.564 127 289.86 126.544 288.276 125.632C286.74 124.672 285.516 123.424 284.604 121.888C283.692 120.352 283.236 118.672 283.236 116.848V100.936H315.348V95.896C315.348 95.8 315.3 95.704 315.204 95.608C315.108 95.512 315.012 95.464 314.916 95.464H283.236V85.24H315.42C317.292 85.24 318.996 85.72 320.532 86.68C322.068 87.592 323.292 88.816 324.204 90.352C325.116 91.888 325.572 93.568 325.572 95.392V127H293.388ZM293.892 116.776H315.348V110.08H293.46V116.344C293.46 116.44 293.508 116.536 293.604 116.632C293.7 116.728 293.796 116.776 293.892 116.776ZM366.379 127C364.507 127 362.779 126.544 361.195 125.632C359.611 124.672 358.363 123.424 357.451 121.888C356.539 120.304 356.083 118.552 356.083 116.632V112.24H366.451V116.128C366.451 116.272 366.475 116.392 366.523 116.488C366.619 116.536 366.715 116.56 366.811 116.56H396.979C397.075 116.56 397.171 116.536 397.267 116.488C397.363 116.392 397.411 116.272 397.411 116.128V106.696C397.411 106.6 397.363 106.528 397.267 106.48C397.171 106.384 397.075 106.336 396.979 106.336H366.379C364.507 106.336 362.779 105.88 361.195 104.968C359.611 104.008 358.363 102.736 357.451 101.152C356.539 99.568 356.083 97.84 356.083 95.968V85.528C356.083 83.608 356.539 81.88 357.451 80.344C358.363 78.76 359.611 77.512 361.195 76.6C362.779 75.64 364.507 75.16 366.379 75.16H397.555C399.427 75.16 401.131 75.64 402.667 76.6C404.251 77.512 405.523 78.76 406.483 80.344C407.443 81.88 407.923 83.608 407.923 85.528V89.92H397.411V86.032C397.411 85.888 397.363 85.792 397.267 85.744C397.171 85.648 397.075 85.6 396.979 85.6H366.811C366.715 85.6 366.619 85.648 366.523 85.744C366.475 85.792 366.451 85.888 366.451 86.032V95.464C366.451 95.56 366.475 95.656 366.523 95.752C366.619 95.8 366.715 95.824 366.811 95.824H397.555C399.427 95.824 401.131 96.304 402.667 97.264C404.251 98.176 405.523 99.424 406.483 101.008C407.443 102.592 407.923 104.32 407.923 106.192V116.632C407.923 118.552 407.443 120.304 406.483 121.888C405.523 123.424 404.251 124.672 402.667 125.632C401.131 126.544 399.427 127 397.555 127H366.379ZM415.638 127V85.24H447.822C449.694 85.24 451.398 85.72 452.934 86.68C454.47 87.592 455.694 88.816 456.606 90.352C457.518 91.888 457.974 93.568 457.974 95.392V127H447.75V95.896C447.75 95.8 447.702 95.704 447.606 95.608C447.558 95.512 447.462 95.464 447.318 95.464H426.294C426.198 95.464 426.102 95.512 426.006 95.608C425.91 95.704 425.862 95.8 425.862 95.896V127H415.638ZM465.627 127V85.24H475.851V127H465.627ZM465.627 81.856V71.56H475.851V81.856H465.627ZM482.927 143.56V85.24H515.111C516.983 85.24 518.687 85.72 520.223 86.68C521.759 87.592 522.983 88.816 523.895 90.352C524.807 91.888 525.263 93.568 525.263 95.392V116.848C525.263 118.672 524.807 120.352 523.895 121.888C522.983 123.424 521.759 124.672 520.223 125.632C518.687 126.544 516.983 127 515.111 127H493.151V143.56H482.927ZM493.583 116.776H514.607C514.751 116.776 514.847 116.728 514.895 116.632C514.991 116.536 515.039 116.44 515.039 116.344V95.896C515.039 95.8 514.991 95.704 514.895 95.608C514.847 95.512 514.751 95.464 514.607 95.464H493.583C493.487 95.464 493.391 95.512 493.295 95.608C493.199 95.704 493.151 95.8 493.151 95.896V116.344C493.151 116.44 493.199 116.536 493.295 116.632C493.391 116.728 493.487 116.776 493.583 116.776ZM540.676 127C538.852 127 537.172 126.544 535.636 125.632C534.1 124.672 532.852 123.424 531.892 121.888C530.98 120.352 530.524 118.672 530.524 116.848V95.392C530.524 93.568 530.98 91.888 531.892 90.352C532.852 88.816 534.1 87.592 535.636 86.68C537.172 85.72 538.852 85.24 540.676 85.24H562.708C564.58 85.24 566.284 85.72 567.82 86.68C569.356 87.592 570.58 88.816 571.492 90.352C572.404 91.888 572.86 93.568 572.86 95.392V111.304H540.748V116.344C540.748 116.44 540.796 116.536 540.892 116.632C540.988 116.728 541.084 116.776 541.18 116.776H572.86V127H540.676ZM540.748 102.16H562.636V95.896C562.636 95.8 562.588 95.704 562.492 95.608C562.396 95.512 562.3 95.464 562.204 95.464H541.18C541.084 95.464 540.988 95.512 540.892 95.608C540.796 95.704 540.748 95.8 540.748 95.896V102.16ZM579.955 127V95.392C579.955 93.568 580.411 91.888 581.323 90.352C582.283 88.816 583.531 87.592 585.067 86.68C586.651 85.72 588.355 85.24 590.179 85.24H613.291V95.464H590.611C590.515 95.464 590.419 95.512 590.323 95.608C590.227 95.704 590.179 95.8 590.179 95.896V127H579.955ZM640.928 127V75.16H680.384C682.256 75.16 683.96 75.64 685.496 76.6C687.08 77.512 688.352 78.76 689.312 80.344C690.272 81.88 690.752 83.608 690.752 85.528V95.464C690.752 96.088 690.704 96.688 690.608 97.264C690.512 97.792 690.368 98.32 690.176 98.848C690.944 99.856 691.568 100.96 692.048 102.16C692.528 103.312 692.768 104.488 692.768 105.688V116.632C692.768 118.552 692.288 120.304 691.328 121.888C690.368 123.424 689.096 124.672 687.512 125.632C685.976 126.544 684.248 127 682.328 127H640.928ZM651.728 116.56H681.824C681.968 116.56 682.064 116.536 682.112 116.488C682.208 116.392 682.256 116.272 682.256 116.128V106.264C682.256 106.168 682.208 106.072 682.112 105.976C682.064 105.88 681.968 105.832 681.824 105.832H651.728C651.584 105.832 651.464 105.88 651.368 105.976C651.32 106.072 651.296 106.168 651.296 106.264V116.128C651.296 116.272 651.32 116.392 651.368 116.488C651.464 116.536 651.584 116.56 651.728 116.56ZM651.728 95.392H679.808C679.904 95.392 680 95.368 680.096 95.32C680.192 95.224 680.24 95.128 680.24 95.032V86.032C680.24 85.888 680.192 85.792 680.096 85.744C680 85.648 679.904 85.6 679.808 85.6H651.728C651.584 85.6 651.464 85.648 651.368 85.744C651.32 85.792 651.296 85.888 651.296 86.032V95.032C651.296 95.128 651.32 95.224 651.368 95.32C651.464 95.368 651.584 95.392 651.728 95.392ZM710.41 127C708.586 127 706.906 126.544 705.37 125.632C703.834 124.672 702.586 123.424 701.626 121.888C700.714 120.352 700.258 118.672 700.258 116.848V95.392C700.258 93.568 700.714 91.888 701.626 90.352C702.586 88.816 703.834 87.592 705.37 86.68C706.906 85.72 708.586 85.24 710.41 85.24H732.442C734.314 85.24 736.018 85.72 737.554 86.68C739.09 87.592 740.314 88.816 741.226 90.352C742.138 91.888 742.594 93.568 742.594 95.392V116.848C742.594 118.672 742.138 120.352 741.226 121.888C740.314 123.424 739.09 124.672 737.554 125.632C736.018 126.544 734.314 127 732.442 127H710.41ZM710.914 116.776H731.938C732.034 116.776 732.13 116.728 732.226 116.632C732.322 116.536 732.37 116.44 732.37 116.344V95.896C732.37 95.8 732.322 95.704 732.226 95.608C732.13 95.512 732.034 95.464 731.938 95.464H710.914C710.818 95.464 710.722 95.512 710.626 95.608C710.53 95.704 710.482 95.8 710.482 95.896V116.344C710.482 116.44 710.53 116.536 710.626 116.632C710.722 116.728 710.818 116.776 710.914 116.776ZM759.142 127C757.27 127 755.566 126.544 754.03 125.632C752.494 124.672 751.246 123.424 750.286 121.888C749.374 120.352 748.918 118.672 748.918 116.848V72.64H759.142V85.24H775.054V95.464H759.142V116.344C759.142 116.44 759.19 116.536 759.286 116.632C759.382 116.728 759.478 116.776 759.574 116.776H775.054V127H759.142Z" fill="url(#paint0_linear_21_974)"/>
<defs>
<linearGradient id="paint0_linear_21_974" x1="-9.49999" y1="-4.64078" x2="249.6" y2="455.211" gradientUnits="userSpaceOnUse">
<stop stop-color="#FF00E3"/>
<stop offset="0.347164" stop-color="#E326CF"/>
<stop offset="1" stop-color="#004FFF"/>
</linearGradient>
</defs>
</svg>
