<svg width="220" height="37" viewBox="0 0 220 37" fill="none" xmlns="http://www.w3.org/2000/svg">
<rect x="0.5" y="0.680054" width="219" height="35" rx="0.5" stroke="url(#paint0_linear_57_88)"/>
<path d="M71.5503 23.1801V13.0778H75.1512C75.9339 13.0778 76.5833 13.2126 77.0996 13.4823C77.6192 13.7519 78.0073 14.1252 78.2638 14.602C78.5203 15.0755 78.6485 15.6231 78.6485 16.2446C78.6485 16.8628 78.5186 17.4071 78.2588 17.8773C78.0023 18.3443 77.6143 18.7077 77.0947 18.9675C76.5784 19.2273 75.9289 19.3572 75.1463 19.3572H72.4185V18.0451H75.0082C75.5014 18.0451 75.9026 17.9744 76.2117 17.833C76.5242 17.6915 76.7527 17.486 76.8974 17.2164C77.0421 16.9467 77.1144 16.6228 77.1144 16.2446C77.1144 15.8631 77.0404 15.5326 76.8925 15.2531C76.7478 14.9736 76.5192 14.7598 76.2068 14.6119C75.8977 14.4606 75.4916 14.385 74.9884 14.385H73.0745V23.1801H71.5503ZM76.5373 18.6222L79.0333 23.1801H77.297L74.8503 18.6222H76.5373ZM83.5554 23.333C82.8089 23.333 82.166 23.1735 81.6267 22.8545C81.0906 22.5322 80.6763 22.0801 80.3836 21.498C80.0942 20.9126 79.9495 20.227 79.9495 19.441C79.9495 18.6649 80.0942 17.9809 80.3836 17.389C80.6763 16.7971 81.0841 16.335 81.6069 16.0029C82.1331 15.6708 82.7481 15.5047 83.4518 15.5047C83.8793 15.5047 84.2936 15.5754 84.6948 15.7168C85.096 15.8582 85.4561 16.0802 85.7751 16.3827C86.0941 16.6853 86.3457 17.0782 86.5298 17.5617C86.714 18.0418 86.8061 18.6255 86.8061 19.3128V19.8356H80.7832V18.7307H85.3608C85.3608 18.3427 85.2818 17.999 85.124 17.6998C84.9661 17.3972 84.7442 17.1588 84.4581 16.9845C84.1753 16.8102 83.8431 16.7231 83.4617 16.7231C83.0473 16.7231 82.6856 16.825 82.3765 17.0289C82.0706 17.2295 81.8338 17.4926 81.6661 17.8182C81.5017 18.1404 81.4195 18.4907 81.4195 18.8688V19.7321C81.4195 20.2385 81.5083 20.6693 81.6859 21.0244C81.8667 21.3796 82.1183 21.6509 82.4406 21.8383C82.7629 22.0225 83.1394 22.1146 83.5702 22.1146C83.8497 22.1146 84.1046 22.0751 84.3348 21.9962C84.5649 21.914 84.7639 21.7923 84.9316 21.6312C85.0993 21.47 85.2276 21.2711 85.3164 21.0343L86.7123 21.2859C86.6005 21.6969 86.3999 22.057 86.1105 22.3661C85.8244 22.672 85.4644 22.9104 85.0303 23.0814C84.5995 23.2491 84.1078 23.333 83.5554 23.333ZM91.6192 26.1792C91.0174 26.1792 90.4995 26.1002 90.0654 25.9424C89.6346 25.7845 89.2827 25.5757 89.0098 25.3159C88.7368 25.0561 88.5329 24.7717 88.3981 24.4626L89.6658 23.9397C89.7546 24.0844 89.873 24.2373 90.021 24.3984C90.1723 24.5629 90.3761 24.7026 90.6326 24.8177C90.8924 24.9328 91.2262 24.9904 91.634 24.9904C92.193 24.9904 92.6551 24.8539 93.0201 24.581C93.3851 24.3113 93.5676 23.8805 93.5676 23.2886V21.7989H93.4739C93.3851 21.96 93.2569 22.1392 93.0892 22.3366C92.9247 22.5339 92.6978 22.7049 92.4084 22.8496C92.119 22.9943 91.7425 23.0666 91.2788 23.0666C90.6803 23.0666 90.141 22.9268 89.6609 22.6473C89.1841 22.3645 88.8059 21.9485 88.5264 21.3993C88.2501 20.8469 88.112 20.1678 88.112 19.3621C88.112 18.5564 88.2485 17.8658 88.5214 17.2903C88.7977 16.7149 89.1758 16.2742 89.656 15.9684C90.1361 15.6593 90.6803 15.5047 91.2887 15.5047C91.759 15.5047 92.1388 15.5836 92.4282 15.7415C92.7176 15.896 92.9428 16.0769 93.104 16.2841C93.2684 16.4912 93.395 16.6738 93.4838 16.8316H93.5923V15.6033H95.0376V23.3478C95.0376 23.9989 94.8863 24.5333 94.5838 24.9509C94.2812 25.3686 93.8718 25.6777 93.3555 25.8783C92.8425 26.0789 92.2637 26.1792 91.6192 26.1792ZM91.6044 21.8433C92.0286 21.8433 92.3871 21.7446 92.6797 21.5473C92.9757 21.3467 93.1993 21.0606 93.3506 20.689C93.5051 20.3141 93.5824 19.8652 93.5824 19.3424C93.5824 18.8327 93.5068 18.3838 93.3555 17.9957C93.2043 17.6077 92.9823 17.3051 92.6896 17.0881C92.3969 16.8678 92.0352 16.7576 91.6044 16.7576C91.1604 16.7576 90.7905 16.8727 90.4945 17.1029C90.1986 17.3298 89.9749 17.6389 89.8237 18.0303C89.6757 18.4216 89.6017 18.859 89.6017 19.3424C89.6017 19.8389 89.6773 20.2747 89.8286 20.6496C89.9799 21.0244 90.2035 21.3171 90.4995 21.5276C90.7987 21.738 91.167 21.8433 91.6044 21.8433ZM97.0156 23.1801V15.6033H98.4905V23.1801H97.0156ZM97.7605 14.4343C97.504 14.4343 97.2836 14.3488 97.0995 14.1778C96.9186 14.0035 96.8282 13.7963 96.8282 13.5563C96.8282 13.3129 96.9186 13.1057 97.0995 12.9347C97.2836 12.7604 97.504 12.6733 97.7605 12.6733C98.017 12.6733 98.2357 12.7604 98.4165 12.9347C98.6007 13.1057 98.6928 13.3129 98.6928 13.5563C98.6928 13.7963 98.6007 14.0035 98.4165 14.1778C98.2357 14.3488 98.017 14.4343 97.7605 14.4343ZM106.152 17.4531L104.816 17.6899C104.76 17.5189 104.671 17.3561 104.549 17.2016C104.431 17.047 104.27 16.9204 104.066 16.8217C103.862 16.7231 103.607 16.6738 103.301 16.6738C102.884 16.6738 102.535 16.7675 102.255 16.9549C101.976 17.1391 101.836 17.3775 101.836 17.6702C101.836 17.9234 101.93 18.1273 102.117 18.2818C102.305 18.4364 102.607 18.563 103.025 18.6617L104.229 18.9379C104.926 19.099 105.445 19.3473 105.787 19.6827C106.129 20.0182 106.3 20.4539 106.3 20.9899C106.3 21.4437 106.169 21.8482 105.906 22.2034C105.646 22.5552 105.283 22.8315 104.816 23.0321C104.352 23.2327 103.814 23.333 103.203 23.333C102.354 23.333 101.662 23.1521 101.126 22.7904C100.59 22.4253 100.261 21.9074 100.139 21.2365L101.565 21.0195C101.654 21.3911 101.836 21.6723 102.112 21.863C102.389 22.0505 102.749 22.1442 103.193 22.1442C103.676 22.1442 104.062 22.0439 104.352 21.8433C104.641 21.6394 104.786 21.3911 104.786 21.0984C104.786 20.8617 104.697 20.6627 104.52 20.5016C104.345 20.3404 104.077 20.2188 103.716 20.1365L102.433 19.8554C101.726 19.6942 101.203 19.4377 100.864 19.0859C100.529 18.734 100.361 18.2884 100.361 17.7491C100.361 17.3019 100.486 16.9105 100.736 16.5751C100.986 16.2397 101.331 15.9782 101.772 15.7908C102.213 15.6001 102.717 15.5047 103.286 15.5047C104.105 15.5047 104.75 15.6823 105.22 16.0374C105.69 16.3893 106.001 16.8612 106.152 17.4531ZM111.459 15.6033V16.7872H107.32V15.6033H111.459ZM108.43 13.7881H109.905V20.9554C109.905 21.2415 109.948 21.4569 110.033 21.6016C110.119 21.743 110.229 21.84 110.364 21.8926C110.502 21.9419 110.651 21.9666 110.813 21.9666C110.931 21.9666 111.034 21.9584 111.123 21.9419C111.212 21.9255 111.281 21.9123 111.33 21.9025L111.597 23.1209C111.511 23.1537 111.39 23.1866 111.232 23.2195C111.074 23.2557 110.877 23.2754 110.64 23.2787C110.252 23.2853 109.89 23.2162 109.555 23.0715C109.219 22.9268 108.948 22.7032 108.741 22.4007C108.534 22.0981 108.43 21.7183 108.43 21.2612V13.7881ZM116.274 23.333C115.528 23.333 114.885 23.1735 114.346 22.8545C113.81 22.5322 113.395 22.0801 113.103 21.498C112.813 20.9126 112.668 20.227 112.668 19.441C112.668 18.6649 112.813 17.9809 113.103 17.389C113.395 16.7971 113.803 16.335 114.326 16.0029C114.852 15.6708 115.467 15.5047 116.171 15.5047C116.598 15.5047 117.013 15.5754 117.414 15.7168C117.815 15.8582 118.175 16.0802 118.494 16.3827C118.813 16.6853 119.065 17.0782 119.249 17.5617C119.433 18.0418 119.525 18.6255 119.525 19.3128V19.8356H113.502V18.7307H118.08C118.08 18.3427 118.001 17.999 117.843 17.6998C117.685 17.3972 117.463 17.1588 117.177 16.9845C116.894 16.8102 116.562 16.7231 116.181 16.7231C115.766 16.7231 115.405 16.825 115.095 17.0289C114.79 17.2295 114.553 17.4926 114.385 17.8182C114.221 18.1404 114.138 18.4907 114.138 18.8688V19.7321C114.138 20.2385 114.227 20.6693 114.405 21.0244C114.586 21.3796 114.837 21.6509 115.16 21.8383C115.482 22.0225 115.858 22.1146 116.289 22.1146C116.569 22.1146 116.823 22.0751 117.054 21.9962C117.284 21.914 117.483 21.7923 117.651 21.6312C117.818 21.47 117.947 21.2711 118.035 21.0343L119.431 21.2859C119.319 21.6969 119.119 22.057 118.829 22.3661C118.543 22.672 118.183 22.9104 117.749 23.0814C117.318 23.2491 116.827 23.333 116.274 23.333ZM121.161 23.1801V15.6033H122.587V16.8069H122.666C122.804 16.3992 123.047 16.0785 123.396 15.8451C123.748 15.6083 124.146 15.4899 124.59 15.4899C124.682 15.4899 124.79 15.4932 124.915 15.4998C125.044 15.5063 125.144 15.5146 125.216 15.5244V16.9352C125.157 16.9187 125.052 16.9007 124.9 16.8809C124.749 16.8579 124.598 16.8464 124.447 16.8464C124.098 16.8464 123.787 16.9204 123.514 17.0684C123.245 17.2131 123.031 17.4153 122.873 17.6751C122.715 17.9316 122.636 18.2243 122.636 18.5531V23.1801H121.161Z" fill="#EFEFE5" fill-opacity="0.6"/>
<g opacity="0.6" clip-path="url(#clip0_57_88)">
<g clip-path="url(#clip1_57_88)">
<mask id="mask0_57_88" style="mask-type:luminance" maskUnits="userSpaceOnUse" x="138" y="13" width="7" height="11">
<path d="M144.293 13.3235H138.025V23.9901H144.293V13.3235Z" fill="white"/>
</mask>
<g mask="url(#mask0_57_88)">
<path d="M138.827 23.9901C138.583 23.8967 138.425 23.6955 138.247 23.5193C137.952 23.2261 137.952 22.8927 138.246 22.5984C139.534 21.3098 140.822 20.021 142.113 18.7348C142.179 18.6683 142.172 18.639 142.11 18.5768C140.82 17.2904 139.532 16.0016 138.244 14.713C138.016 14.4849 137.958 14.2121 138.116 13.9704C138.26 13.7494 138.452 13.5621 138.67 13.4139C138.881 13.2713 139.14 13.3039 139.337 13.466C139.366 13.4901 139.395 13.5159 139.422 13.5428C140.973 15.0937 142.524 16.6445 144.075 18.1956C144.306 18.4272 144.355 18.6968 144.213 18.9496C144.177 19.0137 144.126 19.0663 144.075 19.1179C142.524 20.669 140.973 22.2193 139.423 23.7718C139.318 23.8772 139.197 23.9475 139.057 23.9904C138.98 23.9901 138.904 23.9901 138.827 23.9901Z" fill="white"/>
</g>
</g>
</g>
<defs>
<linearGradient id="paint0_linear_57_88" x1="-2.95114e-06" y1="9.34672" x2="67.7028" y2="119.041" gradientUnits="userSpaceOnUse">
<stop offset="0.0250287" stop-color="#FF00E3"/>
<stop offset="0.33326" stop-color="#CE0DB9" stop-opacity="0.788449"/>
<stop offset="0.5" stop-opacity="0.33"/>
<stop offset="0.7443" stop-color="#0944C9" stop-opacity="0.683417"/>
<stop offset="1" stop-color="#004FFF"/>
</linearGradient>
<clipPath id="clip0_57_88">
<rect width="16" height="12" fill="white" transform="translate(133.55 12.1801)"/>
</clipPath>
<clipPath id="clip1_57_88">
<rect width="16" height="12" fill="white" transform="translate(133.55 12.1801)"/>
</clipPath>
</defs>
</svg>
