<svg width="220" height="37" viewBox="0 0 220 37" fill="none" xmlns="http://www.w3.org/2000/svg">
<rect x="0.5" y="0.680054" width="219" height="35" rx="0.5" stroke="url(#paint0_linear_57_62)"/>
<path d="M80.3181 12.9982L83.1519 21.2908H83.2662L86.1001 12.9982H87.7606L84.0965 23.1801H82.3216L78.6576 12.9982H80.3181ZM91.6372 23.3342C90.8848 23.3342 90.2368 23.1734 89.6933 22.8519C89.153 22.5271 88.7354 22.0714 88.4404 21.4847C88.1488 20.8948 88.0029 20.2037 88.0029 19.4116C88.0029 18.6294 88.1488 17.94 88.4404 17.3434C88.7354 16.7468 89.1464 16.2811 89.6734 15.9464C90.2037 15.6116 90.8235 15.4443 91.5328 15.4443C91.9636 15.4443 92.3812 15.5155 92.7856 15.658C93.19 15.8006 93.5529 16.0243 93.8744 16.3292C94.1959 16.6341 94.4494 17.0302 94.635 17.5174C94.8206 18.0013 94.9134 18.5896 94.9134 19.2823V19.8093H88.8431V18.6957H93.4568C93.4568 18.3046 93.3772 17.9582 93.2181 17.6566C93.059 17.3517 92.8353 17.1114 92.547 16.9357C92.2619 16.7601 91.9272 16.6722 91.5427 16.6722C91.1251 16.6722 90.7605 16.775 90.449 16.9805C90.1407 17.1827 89.9021 17.4478 89.733 17.7759C89.5673 18.1007 89.4845 18.4537 89.4845 18.8349V19.7049C89.4845 20.2153 89.574 20.6495 89.7529 21.0075C89.9352 21.3654 90.1888 21.6389 90.5136 21.8278C90.8384 22.0134 91.2179 22.1062 91.6521 22.1062C91.9338 22.1062 92.1907 22.0664 92.4227 21.9869C92.6547 21.904 92.8552 21.7814 93.0242 21.619C93.1933 21.4566 93.3225 21.256 93.412 21.0174L94.819 21.271C94.7063 21.6853 94.5041 22.0482 94.2124 22.3597C93.9241 22.668 93.5612 22.9083 93.1237 23.0806C92.6895 23.2497 92.194 23.3342 91.6372 23.3342ZM96.5628 23.1801V15.5437H97.9996V16.7568H98.0791C98.2183 16.3458 98.4636 16.0226 98.8149 15.7873C99.1695 15.5487 99.5706 15.4293 100.018 15.4293C100.111 15.4293 100.22 15.4327 100.346 15.4393C100.475 15.4459 100.576 15.4542 100.649 15.4641V16.886C100.59 16.8694 100.484 16.8512 100.331 16.8313C100.179 16.8081 100.026 16.7965 99.8738 16.7965C99.5225 16.7965 99.2093 16.8711 98.9342 17.0203C98.6624 17.1661 98.447 17.3699 98.2879 17.6318C98.1288 17.8903 98.0493 18.1853 98.0493 18.5167V23.1801H96.5628ZM101.936 23.1801V15.5437H103.422V23.1801H101.936ZM102.687 14.3654C102.428 14.3654 102.206 14.2792 102.02 14.1069C101.838 13.9312 101.747 13.7224 101.747 13.4805C101.747 13.2352 101.838 13.0264 102.02 12.8541C102.206 12.6784 102.428 12.5906 102.687 12.5906C102.945 12.5906 103.165 12.6784 103.348 12.8541C103.533 13.0264 103.626 13.2352 103.626 13.4805C103.626 13.7224 103.533 13.9312 103.348 14.1069C103.165 14.2792 102.945 14.3654 102.687 14.3654ZM109.056 15.5437V16.7369H104.741V15.5437H109.056ZM105.924 23.1801V14.6587C105.924 14.1815 106.029 13.7854 106.237 13.4705C106.446 13.1524 106.723 12.9154 107.068 12.7596C107.412 12.6005 107.787 12.521 108.191 12.521C108.49 12.521 108.745 12.5458 108.957 12.5955C109.169 12.6419 109.326 12.685 109.429 12.7248L109.081 13.9279C109.012 13.908 108.922 13.8848 108.813 13.8583C108.703 13.8285 108.571 13.8136 108.415 13.8136C108.054 13.8136 107.795 13.9031 107.639 14.082C107.487 14.261 107.411 14.5195 107.411 14.8576V23.1801H105.924ZM111.53 26.0437C111.308 26.0437 111.105 26.0255 110.923 25.989C110.741 25.9559 110.605 25.9194 110.516 25.8796L110.873 24.6616C111.145 24.7345 111.387 24.766 111.599 24.756C111.811 24.7461 111.999 24.6666 112.161 24.5174C112.327 24.3683 112.473 24.1247 112.599 23.7866L112.783 23.2795L109.989 15.5437H111.579L113.513 21.4698H113.593L115.527 15.5437H117.123L113.976 24.1992C113.83 24.597 113.644 24.9334 113.419 25.2085C113.194 25.4869 112.925 25.6957 112.614 25.8349C112.302 25.9741 111.941 26.0437 111.53 26.0437Z" fill="#EFEFE5" fill-opacity="0.6"/>
<g opacity="0.6" clip-path="url(#clip0_57_62)">
<g clip-path="url(#clip1_57_62)">
<mask id="mask0_57_62" style="mask-type:luminance" maskUnits="userSpaceOnUse" x="130" y="13" width="7" height="11">
<path d="M136.433 13.3235H130.166V23.9901H136.433V13.3235Z" fill="white"/>
</mask>
<g mask="url(#mask0_57_62)">
<path d="M130.968 23.9901C130.723 23.8967 130.565 23.6955 130.388 23.5193C130.092 23.2261 130.092 22.8927 130.386 22.5984C131.675 21.3098 132.963 20.021 134.253 18.7348C134.32 18.6683 134.313 18.639 134.251 18.5768C132.961 17.2904 131.673 16.0016 130.385 14.713C130.157 14.4849 130.099 14.2121 130.257 13.9704C130.401 13.7494 130.593 13.5621 130.811 13.4139C131.021 13.2713 131.281 13.3039 131.478 13.466C131.507 13.4901 131.535 13.5159 131.562 13.5428C133.113 15.0937 134.665 16.6445 136.215 18.1956C136.447 18.4272 136.496 18.6968 136.354 18.9496C136.318 19.0137 136.267 19.0663 136.215 19.1179C134.665 20.669 133.113 22.2193 131.563 23.7718C131.458 23.8772 131.337 23.9475 131.197 23.9904C131.121 23.9901 131.045 23.9901 130.968 23.9901Z" fill="white"/>
</g>
</g>
</g>
<defs>
<linearGradient id="paint0_linear_57_62" x1="-2.95114e-06" y1="9.34672" x2="67.7028" y2="119.041" gradientUnits="userSpaceOnUse">
<stop offset="0.0250287" stop-color="#FF00E3"/>
<stop offset="0.33326" stop-color="#CE0DB9" stop-opacity="0.788449"/>
<stop offset="0.5" stop-opacity="0.33"/>
<stop offset="0.7443" stop-color="#0944C9" stop-opacity="0.683417"/>
<stop offset="1" stop-color="#004FFF"/>
</linearGradient>
<clipPath id="clip0_57_62">
<rect width="16" height="12" fill="white" transform="translate(125.69 12.1801)"/>
</clipPath>
<clipPath id="clip1_57_62">
<rect width="16" height="12" fill="white" transform="translate(125.69 12.1801)"/>
</clipPath>
</defs>
</svg>
