<svg width="1422" height="193" viewBox="0 0 1422 193" fill="none" xmlns="http://www.w3.org/2000/svg">
<rect x="1.5" y="1" width="1419" height="191" rx="34" fill="#0B0B0B"/>
<rect x="1.5" y="1" width="1419" height="191" rx="34" stroke="url(#paint0_linear_38_219)" stroke-width="2"/>
<path d="M203.559 97C202.467 97 201.473 96.734 200.577 96.202C199.681 95.642 198.953 94.914 198.393 94.018C197.861 93.122 197.595 92.142 197.595 91.078V88.978H203.601V90.784C203.601 90.84 203.615 90.896 203.643 90.952C203.699 91.008 203.755 91.036 203.811 91.036H221.199C221.255 91.036 221.311 91.008 221.367 90.952C221.423 90.896 221.451 90.84 221.451 90.784V84.988C221.451 84.904 221.423 84.848 221.367 84.82C221.311 84.764 221.255 84.736 221.199 84.736H202.677V78.73H220.023C220.107 78.73 220.163 78.716 220.191 78.688C220.247 78.632 220.275 78.576 220.275 78.52V72.976C220.275 72.92 220.247 72.864 220.191 72.808C220.163 72.752 220.107 72.724 220.023 72.724H203.811C203.755 72.724 203.699 72.752 203.643 72.808C203.615 72.864 203.601 72.92 203.601 72.976V75.16H197.595V72.682C197.595 71.59 197.861 70.596 198.393 69.7C198.953 68.804 199.681 68.09 200.577 67.558C201.473 67.026 202.467 66.76 203.559 66.76H220.317C221.409 66.76 222.403 67.026 223.299 67.558C224.195 68.09 224.909 68.804 225.441 69.7C225.973 70.596 226.239 71.59 226.239 72.682V78.772C226.239 79.108 226.211 79.458 226.155 79.822C226.127 80.158 226.057 80.466 225.945 80.746C226.421 81.278 226.785 81.894 227.037 82.594C227.289 83.266 227.415 83.966 227.415 84.694V91.078C227.415 92.142 227.149 93.122 226.617 94.018C226.085 94.914 225.357 95.642 224.433 96.202C223.537 96.734 222.557 97 221.493 97H203.559ZM238.426 97C237.334 97 236.34 96.734 235.444 96.202C234.548 95.642 233.82 94.914 233.26 94.018C232.728 93.122 232.462 92.142 232.462 91.078V72.682C232.462 71.59 232.728 70.596 233.26 69.7C233.82 68.804 234.548 68.09 235.444 67.558C236.34 67.026 237.334 66.76 238.426 66.76H257.578V72.724H238.678C238.622 72.724 238.566 72.752 238.51 72.808C238.454 72.864 238.426 72.92 238.426 72.976V78.352C238.426 78.408 238.454 78.464 238.51 78.52C238.566 78.576 238.622 78.604 238.678 78.604H256.318C257.382 78.604 258.362 78.87 259.258 79.402C260.182 79.934 260.91 80.648 261.442 81.544C262.002 82.44 262.282 83.434 262.282 84.526V91.078C262.282 92.142 262.002 93.122 261.442 94.018C260.91 94.914 260.182 95.642 259.258 96.202C258.362 96.734 257.382 97 256.318 97H238.426ZM238.678 91.036H256.066C256.122 91.036 256.178 91.008 256.234 90.952C256.29 90.896 256.318 90.84 256.318 90.784V84.862C256.318 84.806 256.29 84.75 256.234 84.694C256.178 84.638 256.122 84.61 256.066 84.61H238.426V90.784C238.426 90.84 238.454 90.896 238.51 90.952C238.566 91.008 238.622 91.036 238.678 91.036ZM272.879 97C271.787 97 270.793 96.734 269.897 96.202C269.001 95.642 268.273 94.914 267.713 94.018C267.181 93.122 266.915 92.142 266.915 91.078V88.894H272.879V90.784C272.879 90.84 272.907 90.896 272.963 90.952C273.019 91.008 273.075 91.036 273.131 91.036H290.519C290.575 91.036 290.631 91.008 290.687 90.952C290.743 90.896 290.771 90.84 290.771 90.784V84.904C290.771 84.82 290.743 84.764 290.687 84.736C290.631 84.68 290.575 84.652 290.519 84.652H266.915V66.76H296.735V72.724H273.131C273.075 72.724 273.019 72.752 272.963 72.808C272.907 72.864 272.879 72.92 272.879 72.976V78.394C272.879 78.45 272.907 78.506 272.963 78.562C273.019 78.59 273.075 78.604 273.131 78.604H290.771C291.835 78.604 292.815 78.87 293.711 79.402C294.635 79.934 295.363 80.662 295.895 81.586C296.455 82.482 296.735 83.476 296.735 84.568V91.078C296.735 92.142 296.455 93.122 295.895 94.018C295.363 94.914 294.635 95.642 293.711 96.202C292.815 96.734 291.835 97 290.771 97H272.879ZM301.653 102.586V91.414H307.617V96.538C307.617 97.49 307.351 98.386 306.819 99.226C306.315 100.066 305.601 100.78 304.677 101.368C303.781 101.984 302.773 102.39 301.653 102.586ZM317.669 97C316.577 97 315.583 96.706 314.687 96.118C313.791 95.502 313.063 94.718 312.503 93.766C311.971 92.786 311.705 91.764 311.705 90.7V72.85C311.705 71.758 311.971 70.75 312.503 69.826C313.063 68.902 313.791 68.16 314.687 67.6C315.583 67.04 316.577 66.76 317.669 66.76H335.561C336.653 66.76 337.647 67.04 338.543 67.6C339.439 68.16 340.153 68.902 340.685 69.826C341.245 70.75 341.525 71.758 341.525 72.85V90.7C341.525 91.764 341.245 92.786 340.685 93.766C340.153 94.718 339.439 95.502 338.543 96.118C337.647 96.706 336.653 97 335.561 97H317.669ZM320.693 90.658H335.309C335.365 90.658 335.421 90.644 335.477 90.616C335.533 90.56 335.561 90.49 335.561 90.406V78.226L320.693 90.658ZM317.669 85.324L332.537 72.892H317.921C317.865 72.892 317.809 72.92 317.753 72.976C317.697 73.004 317.669 73.06 317.669 73.144V85.324ZM352.696 97C351.604 97 350.61 96.706 349.714 96.118C348.818 95.502 348.09 94.718 347.53 93.766C346.998 92.786 346.732 91.764 346.732 90.7V72.85C346.732 71.758 346.998 70.75 347.53 69.826C348.09 68.902 348.818 68.16 349.714 67.6C350.61 67.04 351.604 66.76 352.696 66.76H370.588C371.68 66.76 372.674 67.04 373.57 67.6C374.466 68.16 375.18 68.902 375.712 69.826C376.272 70.75 376.552 71.758 376.552 72.85V90.7C376.552 91.764 376.272 92.786 375.712 93.766C375.18 94.718 374.466 95.502 373.57 96.118C372.674 96.706 371.68 97 370.588 97H352.696ZM355.72 90.658H370.336C370.392 90.658 370.448 90.644 370.504 90.616C370.56 90.56 370.588 90.49 370.588 90.406V78.226L355.72 90.658ZM352.696 85.324L367.564 72.892H352.948C352.892 72.892 352.836 72.92 352.78 72.976C352.724 73.004 352.696 73.06 352.696 73.144V85.324ZM387.723 97C386.631 97 385.637 96.706 384.741 96.118C383.845 95.502 383.117 94.718 382.557 93.766C382.025 92.786 381.759 91.764 381.759 90.7V72.85C381.759 71.758 382.025 70.75 382.557 69.826C383.117 68.902 383.845 68.16 384.741 67.6C385.637 67.04 386.631 66.76 387.723 66.76H405.615C406.707 66.76 407.701 67.04 408.597 67.6C409.493 68.16 410.207 68.902 410.739 69.826C411.299 70.75 411.579 71.758 411.579 72.85V90.7C411.579 91.764 411.299 92.786 410.739 93.766C410.207 94.718 409.493 95.502 408.597 96.118C407.701 96.706 406.707 97 405.615 97H387.723ZM390.747 90.658H405.363C405.419 90.658 405.475 90.644 405.531 90.616C405.587 90.56 405.615 90.49 405.615 90.406V78.226L390.747 90.658ZM387.723 85.324L402.591 72.892H387.975C387.919 72.892 387.863 72.92 387.807 72.976C387.751 73.004 387.723 73.06 387.723 73.144V85.324ZM433.941 93.304V87.592H428.355V81.586H433.941V75.958H439.947V81.586H445.701V87.592H439.947V93.304H433.941Z" fill="url(#paint1_linear_38_219)"/>
<path d="M260.798 125V113.498H255.038V112.04H267.998V113.498H262.256V125H260.798ZM269.272 125V116.738C269.272 116.342 269.368 115.982 269.56 115.658C269.764 115.322 270.028 115.058 270.352 114.866C270.688 114.662 271.054 114.56 271.45 114.56H277.318V116.036H271.45C271.258 116.036 271.09 116.108 270.946 116.252C270.814 116.384 270.748 116.546 270.748 116.738V125H269.272ZM280.661 125C280.265 125 279.899 124.904 279.563 124.712C279.239 124.508 278.975 124.244 278.771 123.92C278.579 123.584 278.483 123.218 278.483 122.822V119.042H287.627V116.738C287.627 116.546 287.555 116.384 287.411 116.252C287.279 116.108 287.117 116.036 286.925 116.036H278.483V114.56H286.925C287.333 114.56 287.699 114.662 288.023 114.866C288.359 115.058 288.623 115.322 288.815 115.658C289.019 115.982 289.121 116.342 289.121 116.738V125H280.661ZM280.661 123.524H287.627V120.518H279.959V122.822C279.959 123.014 280.025 123.182 280.157 123.326C280.301 123.458 280.469 123.524 280.661 123.524ZM290.753 125V114.56H299.213C299.609 114.56 299.969 114.662 300.293 114.866C300.629 115.058 300.893 115.322 301.085 115.658C301.289 115.982 301.391 116.342 301.391 116.738V125H299.915V116.738C299.915 116.546 299.843 116.384 299.699 116.252C299.567 116.108 299.405 116.036 299.213 116.036H292.949C292.757 116.036 292.589 116.108 292.445 116.252C292.301 116.384 292.229 116.546 292.229 116.738V125H290.753ZM305.356 125C304.96 125 304.594 124.904 304.258 124.712C303.934 124.508 303.67 124.244 303.466 123.92C303.274 123.584 303.178 123.218 303.178 122.822V122.678H304.654V122.822C304.654 123.014 304.72 123.182 304.852 123.326C304.996 123.458 305.164 123.524 305.356 123.524H311.62C311.812 123.524 311.974 123.458 312.106 123.326C312.25 123.182 312.322 123.014 312.322 122.822V121.22C312.322 121.028 312.25 120.866 312.106 120.734C311.974 120.59 311.812 120.518 311.62 120.518H305.356C304.96 120.518 304.594 120.422 304.258 120.23C303.934 120.026 303.67 119.762 303.466 119.438C303.274 119.102 303.178 118.736 303.178 118.34V116.738C303.178 116.342 303.274 115.982 303.466 115.658C303.67 115.322 303.934 115.058 304.258 114.866C304.594 114.662 304.96 114.56 305.356 114.56H311.62C312.028 114.56 312.394 114.662 312.718 114.866C313.054 115.058 313.318 115.322 313.51 115.658C313.714 115.982 313.816 116.342 313.816 116.738V116.882H312.322V116.738C312.322 116.546 312.25 116.384 312.106 116.252C311.974 116.108 311.812 116.036 311.62 116.036H305.356C305.164 116.036 304.996 116.108 304.852 116.252C304.72 116.384 304.654 116.546 304.654 116.738V118.34C304.654 118.532 304.72 118.7 304.852 118.844C304.996 118.976 305.164 119.042 305.356 119.042H311.62C312.028 119.042 312.394 119.144 312.718 119.348C313.054 119.54 313.318 119.804 313.51 120.14C313.714 120.464 313.816 120.824 313.816 121.22V122.822C313.816 123.218 313.714 123.584 313.51 123.92C313.318 124.244 313.054 124.508 312.718 124.712C312.394 124.904 312.028 125 311.62 125H305.356ZM317.768 125C317.372 125 317.006 124.904 316.67 124.712C316.346 124.508 316.082 124.244 315.878 123.92C315.686 123.584 315.59 123.218 315.59 122.822V119.042H324.734V116.738C324.734 116.546 324.662 116.384 324.518 116.252C324.386 116.108 324.224 116.036 324.032 116.036H315.59V114.56H324.032C324.44 114.56 324.806 114.662 325.13 114.866C325.466 115.058 325.73 115.322 325.922 115.658C326.126 115.982 326.228 116.342 326.228 116.738V125H317.768ZM317.768 123.524H324.734V120.518H317.066V122.822C317.066 123.014 317.132 123.182 317.264 123.326C317.408 123.458 317.576 123.524 317.768 123.524ZM330.073 125C329.677 125 329.311 124.904 328.975 124.712C328.651 124.508 328.387 124.244 328.183 123.92C327.991 123.584 327.895 123.218 327.895 122.822V116.738C327.895 116.342 327.991 115.982 328.183 115.658C328.387 115.322 328.651 115.058 328.975 114.866C329.311 114.662 329.677 114.56 330.073 114.56H338.497V116.036H330.073C329.881 116.036 329.713 116.108 329.569 116.252C329.437 116.384 329.371 116.546 329.371 116.738V122.822C329.371 123.014 329.437 123.182 329.569 123.326C329.713 123.458 329.881 123.524 330.073 123.524H338.533V125H330.073ZM342.167 125C341.759 125 341.387 124.904 341.051 124.712C340.727 124.508 340.469 124.244 340.277 123.92C340.085 123.584 339.989 123.218 339.989 122.822V111.14H341.465V114.56H345.983V116.036H341.465V122.822C341.465 123.014 341.531 123.182 341.663 123.326C341.807 123.458 341.975 123.524 342.167 123.524H345.983V125H342.167ZM347.442 125V114.56H348.918V125H347.442ZM347.442 112.616V111.14H348.918V112.616H347.442ZM353.346 125C352.95 125 352.584 124.904 352.248 124.712C351.924 124.508 351.66 124.244 351.456 123.92C351.264 123.584 351.168 123.218 351.168 122.822V116.738C351.168 116.342 351.264 115.982 351.456 115.658C351.66 115.322 351.924 115.058 352.248 114.866C352.584 114.662 352.95 114.56 353.346 114.56H359.61C360.018 114.56 360.384 114.662 360.708 114.866C361.044 115.058 361.308 115.322 361.5 115.658C361.704 115.982 361.806 116.342 361.806 116.738V122.822C361.806 123.218 361.704 123.584 361.5 123.92C361.308 124.244 361.044 124.508 360.708 124.712C360.384 124.904 360.018 125 359.61 125H353.346ZM353.346 123.524H359.61C359.802 123.524 359.964 123.458 360.096 123.326C360.24 123.182 360.312 123.014 360.312 122.822V116.738C360.312 116.546 360.24 116.384 360.096 116.252C359.964 116.108 359.802 116.036 359.61 116.036H353.346C353.154 116.036 352.986 116.108 352.842 116.252C352.71 116.384 352.644 116.546 352.644 116.738V122.822C352.644 123.014 352.71 123.182 352.842 123.326C352.986 123.458 353.154 123.524 353.346 123.524ZM363.421 125V114.56H371.881C372.277 114.56 372.637 114.662 372.961 114.866C373.297 115.058 373.561 115.322 373.753 115.658C373.957 115.982 374.059 116.342 374.059 116.738V125H372.583V116.738C372.583 116.546 372.511 116.384 372.367 116.252C372.235 116.108 372.073 116.036 371.881 116.036H365.617C365.425 116.036 365.257 116.108 365.113 116.252C364.969 116.384 364.897 116.546 364.897 116.738V125H363.421ZM378.024 125C377.628 125 377.262 124.904 376.926 124.712C376.602 124.508 376.338 124.244 376.134 123.92C375.942 123.584 375.846 123.218 375.846 122.822V122.678H377.322V122.822C377.322 123.014 377.388 123.182 377.52 123.326C377.664 123.458 377.832 123.524 378.024 123.524H384.288C384.48 123.524 384.642 123.458 384.774 123.326C384.918 123.182 384.99 123.014 384.99 122.822V121.22C384.99 121.028 384.918 120.866 384.774 120.734C384.642 120.59 384.48 120.518 384.288 120.518H378.024C377.628 120.518 377.262 120.422 376.926 120.23C376.602 120.026 376.338 119.762 376.134 119.438C375.942 119.102 375.846 118.736 375.846 118.34V116.738C375.846 116.342 375.942 115.982 376.134 115.658C376.338 115.322 376.602 115.058 376.926 114.866C377.262 114.662 377.628 114.56 378.024 114.56H384.288C384.696 114.56 385.062 114.662 385.386 114.866C385.722 115.058 385.986 115.322 386.178 115.658C386.382 115.982 386.484 116.342 386.484 116.738V116.882H384.99V116.738C384.99 116.546 384.918 116.384 384.774 116.252C384.642 116.108 384.48 116.036 384.288 116.036H378.024C377.832 116.036 377.664 116.108 377.52 116.252C377.388 116.384 377.322 116.546 377.322 116.738V118.34C377.322 118.532 377.388 118.7 377.52 118.844C377.664 118.976 377.832 119.042 378.024 119.042H384.288C384.696 119.042 385.062 119.144 385.386 119.348C385.722 119.54 385.986 119.804 386.178 120.14C386.382 120.464 386.484 120.824 386.484 121.22V122.822C386.484 123.218 386.382 123.584 386.178 123.92C385.986 124.244 385.722 124.508 385.386 124.712C385.062 124.904 384.696 125 384.288 125H378.024Z" fill="white"/>
<path d="M569.965 97V75.664L568.117 77.974H560.179L569.587 66.76H575.971V97H569.965ZM584.901 97C583.809 97 582.815 96.706 581.919 96.118C581.023 95.502 580.295 94.718 579.735 93.766C579.203 92.786 578.937 91.764 578.937 90.7V72.85C578.937 71.758 579.203 70.75 579.735 69.826C580.295 68.902 581.023 68.16 581.919 67.6C582.815 67.04 583.809 66.76 584.901 66.76H602.793C603.885 66.76 604.879 67.04 605.775 67.6C606.671 68.16 607.385 68.902 607.917 69.826C608.477 70.75 608.757 71.758 608.757 72.85V90.7C608.757 91.764 608.477 92.786 607.917 93.766C607.385 94.718 606.671 95.502 605.775 96.118C604.879 96.706 603.885 97 602.793 97H584.901ZM587.925 90.658H602.541C602.597 90.658 602.653 90.644 602.709 90.616C602.765 90.56 602.793 90.49 602.793 90.406V78.226L587.925 90.658ZM584.901 85.324L599.769 72.892H585.153C585.097 72.892 585.041 72.92 584.985 72.976C584.929 73.004 584.901 73.06 584.901 73.144V85.324ZM619.928 97C618.836 97 617.842 96.706 616.946 96.118C616.05 95.502 615.322 94.718 614.762 93.766C614.23 92.786 613.964 91.764 613.964 90.7V72.85C613.964 71.758 614.23 70.75 614.762 69.826C615.322 68.902 616.05 68.16 616.946 67.6C617.842 67.04 618.836 66.76 619.928 66.76H637.82C638.912 66.76 639.906 67.04 640.802 67.6C641.698 68.16 642.412 68.902 642.944 69.826C643.504 70.75 643.784 71.758 643.784 72.85V90.7C643.784 91.764 643.504 92.786 642.944 93.766C642.412 94.718 641.698 95.502 640.802 96.118C639.906 96.706 638.912 97 637.82 97H619.928ZM622.952 90.658H637.568C637.624 90.658 637.68 90.644 637.736 90.616C637.792 90.56 637.82 90.49 637.82 90.406V78.226L622.952 90.658ZM619.928 85.324L634.796 72.892H620.18C620.124 72.892 620.068 72.92 620.012 72.976C619.956 73.004 619.928 73.06 619.928 73.144V85.324ZM654.956 97C653.864 97 652.87 96.706 651.974 96.118C651.078 95.502 650.35 94.718 649.79 93.766C649.258 92.786 648.992 91.764 648.992 90.7V72.85C648.992 71.758 649.258 70.75 649.79 69.826C650.35 68.902 651.078 68.16 651.974 67.6C652.87 67.04 653.864 66.76 654.956 66.76H672.848C673.94 66.76 674.934 67.04 675.83 67.6C676.726 68.16 677.44 68.902 677.972 69.826C678.532 70.75 678.812 71.758 678.812 72.85V90.7C678.812 91.764 678.532 92.786 677.972 93.766C677.44 94.718 676.726 95.502 675.83 96.118C674.934 96.706 673.94 97 672.848 97H654.956ZM657.98 90.658H672.596C672.652 90.658 672.708 90.644 672.764 90.616C672.82 90.56 672.848 90.49 672.848 90.406V78.226L657.98 90.658ZM654.956 85.324L669.824 72.892H655.208C655.152 72.892 655.096 72.92 655.04 72.976C654.984 73.004 654.956 73.06 654.956 73.144V85.324ZM701.173 93.304V87.592H695.587V81.586H701.173V75.958H707.179V81.586H712.933V87.592H707.179V93.304H701.173Z" fill="url(#paint2_linear_38_219)"/>
<path d="M609.678 125C609.282 125 608.916 124.904 608.58 124.712C608.256 124.52 607.998 124.262 607.806 123.938C607.614 123.602 607.518 123.236 607.518 122.84V112.04H608.976V122.84C608.976 123.032 609.042 123.2 609.174 123.344C609.318 123.476 609.486 123.542 609.678 123.542H618.318C618.51 123.542 618.672 123.476 618.804 123.344C618.948 123.2 619.02 123.032 619.02 122.84V112.04H620.478V122.84C620.478 123.236 620.382 123.602 620.19 123.938C619.998 124.262 619.734 124.52 619.398 124.712C619.074 124.904 618.714 125 618.318 125H609.678ZM624.494 125C624.098 125 623.732 124.904 623.396 124.712C623.072 124.508 622.808 124.244 622.604 123.92C622.412 123.584 622.316 123.218 622.316 122.822V122.678H623.792V122.822C623.792 123.014 623.858 123.182 623.99 123.326C624.134 123.458 624.302 123.524 624.494 123.524H630.758C630.95 123.524 631.112 123.458 631.244 123.326C631.388 123.182 631.46 123.014 631.46 122.822V121.22C631.46 121.028 631.388 120.866 631.244 120.734C631.112 120.59 630.95 120.518 630.758 120.518H624.494C624.098 120.518 623.732 120.422 623.396 120.23C623.072 120.026 622.808 119.762 622.604 119.438C622.412 119.102 622.316 118.736 622.316 118.34V116.738C622.316 116.342 622.412 115.982 622.604 115.658C622.808 115.322 623.072 115.058 623.396 114.866C623.732 114.662 624.098 114.56 624.494 114.56H630.758C631.166 114.56 631.532 114.662 631.856 114.866C632.192 115.058 632.456 115.322 632.648 115.658C632.852 115.982 632.954 116.342 632.954 116.738V116.882H631.46V116.738C631.46 116.546 631.388 116.384 631.244 116.252C631.112 116.108 630.95 116.036 630.758 116.036H624.494C624.302 116.036 624.134 116.108 623.99 116.252C623.858 116.384 623.792 116.546 623.792 116.738V118.34C623.792 118.532 623.858 118.7 623.99 118.844C624.134 118.976 624.302 119.042 624.494 119.042H630.758C631.166 119.042 631.532 119.144 631.856 119.348C632.192 119.54 632.456 119.804 632.648 120.14C632.852 120.464 632.954 120.824 632.954 121.22V122.822C632.954 123.218 632.852 123.584 632.648 123.92C632.456 124.244 632.192 124.508 631.856 124.712C631.532 124.904 631.166 125 630.758 125H624.494ZM636.624 125C636.228 125 635.862 124.904 635.526 124.712C635.202 124.508 634.938 124.244 634.734 123.92C634.542 123.584 634.446 123.218 634.446 122.822V116.738C634.446 116.342 634.542 115.982 634.734 115.658C634.938 115.322 635.202 115.058 635.526 114.866C635.862 114.662 636.228 114.56 636.624 114.56H642.888C643.296 114.56 643.662 114.662 643.986 114.866C644.322 115.058 644.586 115.322 644.778 115.658C644.982 115.982 645.084 116.342 645.084 116.738V120.518H635.922V122.822C635.922 123.014 635.988 123.182 636.12 123.326C636.264 123.458 636.432 123.524 636.624 123.524H645.084V125H636.624ZM635.922 119.042H643.59V116.738C643.59 116.546 643.518 116.384 643.374 116.252C643.242 116.108 643.08 116.036 642.888 116.036H636.624C636.432 116.036 636.264 116.108 636.12 116.252C635.988 116.384 635.922 116.546 635.922 116.738V119.042ZM646.839 125V116.738C646.839 116.342 646.935 115.982 647.127 115.658C647.331 115.322 647.595 115.058 647.919 114.866C648.255 114.662 648.621 114.56 649.017 114.56H654.885V116.036H649.017C648.825 116.036 648.657 116.108 648.513 116.252C648.381 116.384 648.315 116.546 648.315 116.738V125H646.839ZM658.156 125C657.76 125 657.394 124.904 657.058 124.712C656.734 124.508 656.47 124.244 656.266 123.92C656.074 123.584 655.978 123.218 655.978 122.822V122.678H657.454V122.822C657.454 123.014 657.52 123.182 657.652 123.326C657.796 123.458 657.964 123.524 658.156 123.524H664.42C664.612 123.524 664.774 123.458 664.906 123.326C665.05 123.182 665.122 123.014 665.122 122.822V121.22C665.122 121.028 665.05 120.866 664.906 120.734C664.774 120.59 664.612 120.518 664.42 120.518H658.156C657.76 120.518 657.394 120.422 657.058 120.23C656.734 120.026 656.47 119.762 656.266 119.438C656.074 119.102 655.978 118.736 655.978 118.34V116.738C655.978 116.342 656.074 115.982 656.266 115.658C656.47 115.322 656.734 115.058 657.058 114.866C657.394 114.662 657.76 114.56 658.156 114.56H664.42C664.828 114.56 665.194 114.662 665.518 114.866C665.854 115.058 666.118 115.322 666.31 115.658C666.514 115.982 666.616 116.342 666.616 116.738V116.882H665.122V116.738C665.122 116.546 665.05 116.384 664.906 116.252C664.774 116.108 664.612 116.036 664.42 116.036H658.156C657.964 116.036 657.796 116.108 657.652 116.252C657.52 116.384 657.454 116.546 657.454 116.738V118.34C657.454 118.532 657.52 118.7 657.652 118.844C657.796 118.976 657.964 119.042 658.156 119.042H664.42C664.828 119.042 665.194 119.144 665.518 119.348C665.854 119.54 666.118 119.804 666.31 120.14C666.514 120.464 666.616 120.824 666.616 121.22V122.822C666.616 123.218 666.514 123.584 666.31 123.92C666.118 124.244 665.854 124.508 665.518 124.712C665.194 124.904 664.828 125 664.42 125H658.156Z" fill="white"/>
<path d="M832.967 97C831.875 97 830.881 96.734 829.985 96.202C829.089 95.642 828.361 94.914 827.801 94.018C827.269 93.122 827.003 92.142 827.003 91.078V88.978H833.009V90.784C833.009 90.84 833.023 90.896 833.051 90.952C833.107 91.008 833.163 91.036 833.219 91.036H850.607C850.663 91.036 850.719 91.008 850.775 90.952C850.831 90.896 850.859 90.84 850.859 90.784V84.988C850.859 84.904 850.831 84.848 850.775 84.82C850.719 84.764 850.663 84.736 850.607 84.736H832.085V78.73H849.431C849.515 78.73 849.571 78.716 849.599 78.688C849.655 78.632 849.683 78.576 849.683 78.52V72.976C849.683 72.92 849.655 72.864 849.599 72.808C849.571 72.752 849.515 72.724 849.431 72.724H833.219C833.163 72.724 833.107 72.752 833.051 72.808C833.023 72.864 833.009 72.92 833.009 72.976V75.16H827.003V72.682C827.003 71.59 827.269 70.596 827.801 69.7C828.361 68.804 829.089 68.09 829.985 67.558C830.881 67.026 831.875 66.76 832.967 66.76H849.725C850.817 66.76 851.811 67.026 852.707 67.558C853.603 68.09 854.317 68.804 854.849 69.7C855.381 70.596 855.647 71.59 855.647 72.682V78.772C855.647 79.108 855.619 79.458 855.563 79.822C855.535 80.158 855.465 80.466 855.353 80.746C855.829 81.278 856.193 81.894 856.445 82.594C856.697 83.266 856.823 83.966 856.823 84.694V91.078C856.823 92.142 856.557 93.122 856.025 94.018C855.493 94.914 854.765 95.642 853.841 96.202C852.945 96.734 851.965 97 850.901 97H832.967ZM867.835 97C866.743 97 865.749 96.734 864.853 96.202C863.957 95.642 863.229 94.914 862.669 94.018C862.137 93.122 861.871 92.142 861.871 91.078V72.682C861.871 71.59 862.137 70.596 862.669 69.7C863.229 68.804 863.957 68.09 864.853 67.558C865.749 67.026 866.743 66.76 867.835 66.76H886.987V72.724H868.087C868.031 72.724 867.975 72.752 867.919 72.808C867.863 72.864 867.835 72.92 867.835 72.976V78.352C867.835 78.408 867.863 78.464 867.919 78.52C867.975 78.576 868.031 78.604 868.087 78.604H885.727C886.791 78.604 887.771 78.87 888.667 79.402C889.591 79.934 890.319 80.648 890.851 81.544C891.411 82.44 891.691 83.434 891.691 84.526V91.078C891.691 92.142 891.411 93.122 890.851 94.018C890.319 94.914 889.591 95.642 888.667 96.202C887.771 96.734 886.791 97 885.727 97H867.835ZM868.087 91.036H885.475C885.531 91.036 885.587 91.008 885.643 90.952C885.699 90.896 885.727 90.84 885.727 90.784V84.862C885.727 84.806 885.699 84.75 885.643 84.694C885.587 84.638 885.531 84.61 885.475 84.61H867.835V90.784C867.835 90.84 867.863 90.896 867.919 90.952C867.975 91.008 868.031 91.036 868.087 91.036ZM902.288 97C901.196 97 900.202 96.706 899.306 96.118C898.41 95.502 897.682 94.718 897.122 93.766C896.59 92.786 896.324 91.764 896.324 90.7V72.85C896.324 71.758 896.59 70.75 897.122 69.826C897.682 68.902 898.41 68.16 899.306 67.6C900.202 67.04 901.196 66.76 902.288 66.76H920.18C921.272 66.76 922.266 67.04 923.162 67.6C924.058 68.16 924.772 68.902 925.304 69.826C925.864 70.75 926.144 71.758 926.144 72.85V90.7C926.144 91.764 925.864 92.786 925.304 93.766C924.772 94.718 924.058 95.502 923.162 96.118C922.266 96.706 921.272 97 920.18 97H902.288ZM905.312 90.658H919.928C919.984 90.658 920.04 90.644 920.096 90.616C920.152 90.56 920.18 90.49 920.18 90.406V78.226L905.312 90.658ZM902.288 85.324L917.156 72.892H902.54C902.484 72.892 902.428 72.92 902.372 72.976C902.316 73.004 902.288 73.06 902.288 73.144V85.324ZM937.315 97C936.223 97 935.229 96.706 934.333 96.118C933.437 95.502 932.709 94.718 932.149 93.766C931.617 92.786 931.351 91.764 931.351 90.7V72.85C931.351 71.758 931.617 70.75 932.149 69.826C932.709 68.902 933.437 68.16 934.333 67.6C935.229 67.04 936.223 66.76 937.315 66.76H955.207C956.299 66.76 957.293 67.04 958.189 67.6C959.085 68.16 959.799 68.902 960.331 69.826C960.891 70.75 961.171 71.758 961.171 72.85V90.7C961.171 91.764 960.891 92.786 960.331 93.766C959.799 94.718 959.085 95.502 958.189 96.118C957.293 96.706 956.299 97 955.207 97H937.315ZM940.339 90.658H954.955C955.011 90.658 955.067 90.644 955.123 90.616C955.179 90.56 955.207 90.49 955.207 90.406V78.226L940.339 90.658ZM937.315 85.324L952.183 72.892H937.567C937.511 72.892 937.455 72.92 937.399 72.976C937.343 73.004 937.315 73.06 937.315 73.144V85.324ZM983.532 93.304V87.592H977.946V81.586H983.532V75.958H989.538V81.586H995.292V87.592H989.538V93.304H983.532Z" fill="url(#paint3_linear_38_219)"/>
<path d="M848.803 125C848.407 125 848.041 124.904 847.705 124.712C847.381 124.52 847.123 124.262 846.931 123.938C846.739 123.602 846.643 123.236 846.643 122.84V122.336H848.101V122.84C848.101 123.032 848.167 123.2 848.299 123.344C848.443 123.476 848.611 123.542 848.803 123.542H857.443C857.635 123.542 857.797 123.476 857.929 123.344C858.073 123.2 858.145 123.032 858.145 122.84V119.942C858.145 119.75 858.073 119.588 857.929 119.456C857.797 119.324 857.635 119.258 857.443 119.258H848.803C848.407 119.258 848.041 119.162 847.705 118.97C847.381 118.766 847.123 118.502 846.931 118.178C846.739 117.854 846.643 117.494 846.643 117.098V114.2C846.643 113.804 846.739 113.444 846.931 113.12C847.123 112.784 847.381 112.52 847.705 112.328C848.041 112.136 848.407 112.04 848.803 112.04H857.443C857.839 112.04 858.199 112.136 858.523 112.328C858.859 112.52 859.123 112.784 859.315 113.12C859.507 113.444 859.603 113.804 859.603 114.2V114.704H858.145V114.2C858.145 114.008 858.073 113.846 857.929 113.714C857.797 113.57 857.635 113.498 857.443 113.498H848.803C848.611 113.498 848.443 113.57 848.299 113.714C848.167 113.846 848.101 114.008 848.101 114.2V117.098C848.101 117.29 848.167 117.452 848.299 117.584C848.443 117.716 848.611 117.782 848.803 117.782H857.443C857.839 117.782 858.199 117.884 858.523 118.088C858.859 118.28 859.123 118.538 859.315 118.862C859.507 119.186 859.603 119.546 859.603 119.942V122.84C859.603 123.236 859.507 123.602 859.315 123.938C859.123 124.262 858.859 124.52 858.523 124.712C858.199 124.904 857.839 125 857.443 125H848.803ZM863.657 125C863.261 125 862.895 124.904 862.559 124.712C862.235 124.508 861.971 124.244 861.767 123.92C861.575 123.584 861.479 123.218 861.479 122.822V114.56H862.955V122.822C862.955 123.014 863.021 123.182 863.153 123.326C863.297 123.458 863.465 123.524 863.657 123.524H869.921C870.113 123.524 870.281 123.458 870.425 123.326C870.569 123.182 870.641 123.014 870.641 122.822V114.56H872.117V122.822C872.117 123.218 872.015 123.584 871.811 123.92C871.619 124.244 871.355 124.508 871.019 124.712C870.695 124.904 870.329 125 869.921 125H863.657ZM873.749 129.14V114.56H882.209C882.605 114.56 882.965 114.662 883.289 114.866C883.625 115.058 883.889 115.322 884.081 115.658C884.285 115.982 884.387 116.342 884.387 116.738V122.822C884.387 123.218 884.285 123.584 884.081 123.92C883.889 124.244 883.625 124.508 883.289 124.712C882.965 124.904 882.605 125 882.209 125H875.225V129.14H873.749ZM875.945 123.524H882.209C882.401 123.524 882.563 123.458 882.695 123.326C882.839 123.182 882.911 123.014 882.911 122.822V116.738C882.911 116.546 882.839 116.384 882.695 116.252C882.563 116.108 882.401 116.036 882.209 116.036H875.945C875.753 116.036 875.585 116.108 875.441 116.252C875.297 116.384 875.225 116.546 875.225 116.738V122.822C875.225 123.014 875.297 123.182 875.441 123.326C875.585 123.458 875.753 123.524 875.945 123.524ZM885.702 129.14V114.56H894.162C894.558 114.56 894.918 114.662 895.242 114.866C895.578 115.058 895.842 115.322 896.034 115.658C896.238 115.982 896.34 116.342 896.34 116.738V122.822C896.34 123.218 896.238 123.584 896.034 123.92C895.842 124.244 895.578 124.508 895.242 124.712C894.918 124.904 894.558 125 894.162 125H887.178V129.14H885.702ZM887.898 123.524H894.162C894.354 123.524 894.516 123.458 894.648 123.326C894.792 123.182 894.864 123.014 894.864 122.822V116.738C894.864 116.546 894.792 116.384 894.648 116.252C894.516 116.108 894.354 116.036 894.162 116.036H887.898C887.706 116.036 887.538 116.108 887.394 116.252C887.25 116.384 887.178 116.546 887.178 116.738V122.822C887.178 123.014 887.25 123.182 887.394 123.326C887.538 123.458 887.706 123.524 887.898 123.524ZM899.78 125C899.384 125 899.018 124.904 898.682 124.712C898.358 124.508 898.094 124.244 897.89 123.92C897.698 123.584 897.602 123.218 897.602 122.822V116.738C897.602 116.342 897.698 115.982 897.89 115.658C898.094 115.322 898.358 115.058 898.682 114.866C899.018 114.662 899.384 114.56 899.78 114.56H906.044C906.452 114.56 906.818 114.662 907.142 114.866C907.478 115.058 907.742 115.322 907.934 115.658C908.138 115.982 908.24 116.342 908.24 116.738V122.822C908.24 123.218 908.138 123.584 907.934 123.92C907.742 124.244 907.478 124.508 907.142 124.712C906.818 124.904 906.452 125 906.044 125H899.78ZM899.78 123.524H906.044C906.236 123.524 906.398 123.458 906.53 123.326C906.674 123.182 906.746 123.014 906.746 122.822V116.738C906.746 116.546 906.674 116.384 906.53 116.252C906.398 116.108 906.236 116.036 906.044 116.036H899.78C899.588 116.036 899.42 116.108 899.276 116.252C899.144 116.384 899.078 116.546 899.078 116.738V122.822C899.078 123.014 899.144 123.182 899.276 123.326C899.42 123.458 899.588 123.524 899.78 123.524ZM909.907 125V116.738C909.907 116.342 910.003 115.982 910.195 115.658C910.399 115.322 910.663 115.058 910.987 114.866C911.323 114.662 911.689 114.56 912.085 114.56H917.953V116.036H912.085C911.893 116.036 911.725 116.108 911.581 116.252C911.449 116.384 911.383 116.546 911.383 116.738V125H909.907ZM921.314 125C920.906 125 920.534 124.904 920.198 124.712C919.874 124.508 919.616 124.244 919.424 123.92C919.232 123.584 919.136 123.218 919.136 122.822V111.14H920.612V114.56H925.13V116.036H920.612V122.822C920.612 123.014 920.678 123.182 920.81 123.326C920.954 123.458 921.122 123.524 921.314 123.524H925.13V125H921.314ZM931.495 125V112.04H932.953V117.782H943.303V112.04H944.779V125H943.303V119.258H932.953V125H931.495ZM948.875 125C948.479 125 948.113 124.904 947.777 124.712C947.453 124.508 947.189 124.244 946.985 123.92C946.793 123.584 946.697 123.218 946.697 122.822V116.738C946.697 116.342 946.793 115.982 946.985 115.658C947.189 115.322 947.453 115.058 947.777 114.866C948.113 114.662 948.479 114.56 948.875 114.56H955.139C955.547 114.56 955.913 114.662 956.237 114.866C956.573 115.058 956.837 115.322 957.029 115.658C957.233 115.982 957.335 116.342 957.335 116.738V120.518H948.173V122.822C948.173 123.014 948.239 123.182 948.371 123.326C948.515 123.458 948.683 123.524 948.875 123.524H957.335V125H948.875ZM948.173 119.042H955.841V116.738C955.841 116.546 955.769 116.384 955.625 116.252C955.493 116.108 955.331 116.036 955.139 116.036H948.875C948.683 116.036 948.515 116.108 948.371 116.252C948.239 116.384 948.173 116.546 948.173 116.738V119.042ZM961.005 125C960.609 125 960.243 124.904 959.907 124.712C959.583 124.508 959.319 124.244 959.115 123.92C958.923 123.584 958.827 123.218 958.827 122.822V111.14H960.303V122.822C960.303 123.014 960.369 123.182 960.501 123.326C960.645 123.458 960.813 123.524 961.005 123.524H962.769V125H961.005ZM964.294 129.14V114.56H972.754C973.15 114.56 973.51 114.662 973.834 114.866C974.17 115.058 974.434 115.322 974.626 115.658C974.83 115.982 974.932 116.342 974.932 116.738V122.822C974.932 123.218 974.83 123.584 974.626 123.92C974.434 124.244 974.17 124.508 973.834 124.712C973.51 124.904 973.15 125 972.754 125H965.77V129.14H964.294ZM966.49 123.524H972.754C972.946 123.524 973.108 123.458 973.24 123.326C973.384 123.182 973.456 123.014 973.456 122.822V116.738C973.456 116.546 973.384 116.384 973.24 116.252C973.108 116.108 972.946 116.036 972.754 116.036H966.49C966.298 116.036 966.13 116.108 965.986 116.252C965.842 116.384 965.77 116.546 965.77 116.738V122.822C965.77 123.014 965.842 123.182 965.986 123.326C966.13 123.458 966.298 123.524 966.49 123.524Z" fill="white"/>
<path d="M1131.99 97V75.664L1130.14 77.974H1122.21L1131.61 66.76H1138V97H1131.99ZM1146.93 97C1145.84 97 1144.84 96.706 1143.95 96.118C1143.05 95.502 1142.32 94.718 1141.76 93.766C1141.23 92.786 1140.96 91.764 1140.96 90.7V72.85C1140.96 71.758 1141.23 70.75 1141.76 69.826C1142.32 68.902 1143.05 68.16 1143.95 67.6C1144.84 67.04 1145.84 66.76 1146.93 66.76H1164.82C1165.91 66.76 1166.91 67.04 1167.8 67.6C1168.7 68.16 1169.41 68.902 1169.94 69.826C1170.5 70.75 1170.78 71.758 1170.78 72.85V90.7C1170.78 91.764 1170.5 92.786 1169.94 93.766C1169.41 94.718 1168.7 95.502 1167.8 96.118C1166.91 96.706 1165.91 97 1164.82 97H1146.93ZM1149.95 90.658H1164.57C1164.62 90.658 1164.68 90.644 1164.74 90.616C1164.79 90.56 1164.82 90.49 1164.82 90.406V78.226L1149.95 90.658ZM1146.93 85.324L1161.8 72.892H1147.18C1147.12 72.892 1147.07 72.92 1147.01 72.976C1146.96 73.004 1146.93 73.06 1146.93 73.144V85.324ZM1193.15 93.304V87.592H1187.56V81.586H1193.15V75.958H1199.15V81.586H1204.91V87.592H1199.15V93.304H1193.15Z" fill="url(#paint4_linear_38_219)"/>
<path d="M1099.98 129V117.498H1094.22V116.04H1107.18V117.498H1101.44V129H1099.98ZM1110.62 129C1110.22 129 1109.86 128.904 1109.52 128.712C1109.2 128.508 1108.93 128.244 1108.73 127.92C1108.54 127.584 1108.44 127.218 1108.44 126.822V120.738C1108.44 120.342 1108.54 119.982 1108.73 119.658C1108.93 119.322 1109.2 119.058 1109.52 118.866C1109.86 118.662 1110.22 118.56 1110.62 118.56H1116.88C1117.29 118.56 1117.66 118.662 1117.98 118.866C1118.32 119.058 1118.58 119.322 1118.77 119.658C1118.98 119.982 1119.08 120.342 1119.08 120.738V124.518H1109.92V126.822C1109.92 127.014 1109.98 127.182 1110.11 127.326C1110.26 127.458 1110.43 127.524 1110.62 127.524H1119.08V129H1110.62ZM1109.92 123.042H1117.58V120.738C1117.58 120.546 1117.51 120.384 1117.37 120.252C1117.24 120.108 1117.07 120.036 1116.88 120.036H1110.62C1110.43 120.036 1110.26 120.108 1110.11 120.252C1109.98 120.384 1109.92 120.546 1109.92 120.738V123.042ZM1123.1 129C1122.7 129 1122.34 128.904 1122 128.712C1121.68 128.508 1121.41 128.244 1121.21 127.92C1121.02 127.584 1120.92 127.218 1120.92 126.822V123.042H1130.06V120.738C1130.06 120.546 1129.99 120.384 1129.85 120.252C1129.72 120.108 1129.55 120.036 1129.36 120.036H1120.92V118.56H1129.36C1129.77 118.56 1130.14 118.662 1130.46 118.866C1130.8 119.058 1131.06 119.322 1131.25 119.658C1131.46 119.982 1131.56 120.342 1131.56 120.738V129H1123.1ZM1123.1 127.524H1130.06V124.518H1122.4V126.822C1122.4 127.014 1122.46 127.182 1122.59 127.326C1122.74 127.458 1122.91 127.524 1123.1 127.524ZM1133.1 129V118.56H1146.89C1147.3 118.56 1147.66 118.662 1147.99 118.866C1148.32 119.058 1148.59 119.322 1148.78 119.658C1148.97 119.982 1149.07 120.342 1149.07 120.738V129H1147.61V120.738C1147.61 120.546 1147.54 120.384 1147.39 120.252C1147.25 120.108 1147.08 120.036 1146.89 120.036H1142.55C1142.36 120.036 1142.19 120.108 1142.05 120.252C1141.92 120.384 1141.85 120.546 1141.85 120.738V129H1140.36V120.738C1140.36 120.546 1140.28 120.384 1140.14 120.252C1140.01 120.108 1139.85 120.036 1139.65 120.036H1135.3C1135.11 120.036 1134.94 120.108 1134.79 120.252C1134.66 120.384 1134.6 120.546 1134.6 120.738V129H1133.1ZM1155.67 129V116.04H1167.5V117.498H1157.13V121.782H1165.47V123.258H1157.13V127.542H1167.5V129H1155.67ZM1169.24 129V128.982L1173.6 123.69L1169.24 118.578V118.56H1171.18L1174.57 122.52L1177.97 118.56H1179.9V118.578L1175.54 123.69L1179.91 128.982V129H1177.97L1174.57 124.824L1171.18 129H1169.24ZM1181.85 133.14V118.56H1190.31C1190.7 118.56 1191.06 118.662 1191.39 118.866C1191.72 119.058 1191.99 119.322 1192.18 119.658C1192.38 119.982 1192.49 120.342 1192.49 120.738V126.822C1192.49 127.218 1192.38 127.584 1192.18 127.92C1191.99 128.244 1191.72 128.508 1191.39 128.712C1191.06 128.904 1190.7 129 1190.31 129H1183.32V133.14H1181.85ZM1184.04 127.524H1190.31C1190.5 127.524 1190.66 127.458 1190.79 127.326C1190.94 127.182 1191.01 127.014 1191.01 126.822V120.738C1191.01 120.546 1190.94 120.384 1190.79 120.252C1190.66 120.108 1190.5 120.036 1190.31 120.036H1184.04C1183.85 120.036 1183.68 120.108 1183.54 120.252C1183.4 120.384 1183.32 120.546 1183.32 120.738V126.822C1183.32 127.014 1183.4 127.182 1183.54 127.326C1183.68 127.458 1183.85 127.524 1184.04 127.524ZM1195.92 129C1195.53 129 1195.16 128.904 1194.83 128.712C1194.5 128.508 1194.24 128.244 1194.03 127.92C1193.84 127.584 1193.75 127.218 1193.75 126.822V120.738C1193.75 120.342 1193.84 119.982 1194.03 119.658C1194.24 119.322 1194.5 119.058 1194.83 118.866C1195.16 118.662 1195.53 118.56 1195.92 118.56H1202.19C1202.6 118.56 1202.96 118.662 1203.29 118.866C1203.62 119.058 1203.89 119.322 1204.08 119.658C1204.28 119.982 1204.38 120.342 1204.38 120.738V124.518H1195.22V126.822C1195.22 127.014 1195.29 127.182 1195.42 127.326C1195.56 127.458 1195.73 127.524 1195.92 127.524H1204.38V129H1195.92ZM1195.22 123.042H1202.89V120.738C1202.89 120.546 1202.82 120.384 1202.67 120.252C1202.54 120.108 1202.38 120.036 1202.19 120.036H1195.92C1195.73 120.036 1195.56 120.108 1195.42 120.252C1195.29 120.384 1195.22 120.546 1195.22 120.738V123.042ZM1206.14 129V120.738C1206.14 120.342 1206.24 119.982 1206.43 119.658C1206.63 119.322 1206.9 119.058 1207.22 118.866C1207.56 118.662 1207.92 118.56 1208.32 118.56H1214.19V120.036H1208.32C1208.13 120.036 1207.96 120.108 1207.81 120.252C1207.68 120.384 1207.62 120.546 1207.62 120.738V129H1206.14ZM1217.55 129C1217.14 129 1216.77 128.904 1216.43 128.712C1216.11 128.508 1215.85 128.244 1215.66 127.92C1215.46 127.584 1215.37 127.218 1215.37 126.822V115.14H1216.84V118.56H1221.36V120.036H1216.84V126.822C1216.84 127.014 1216.91 127.182 1217.04 127.326C1217.19 127.458 1217.35 127.524 1217.55 127.524H1221.36V129H1217.55ZM1224.84 129C1224.44 129 1224.08 128.904 1223.74 128.712C1223.42 128.508 1223.15 128.244 1222.95 127.92C1222.76 127.584 1222.66 127.218 1222.66 126.822V126.678H1224.14V126.822C1224.14 127.014 1224.2 127.182 1224.33 127.326C1224.48 127.458 1224.65 127.524 1224.84 127.524H1231.1C1231.29 127.524 1231.46 127.458 1231.59 127.326C1231.73 127.182 1231.8 127.014 1231.8 126.822V125.22C1231.8 125.028 1231.73 124.866 1231.59 124.734C1231.46 124.59 1231.29 124.518 1231.1 124.518H1224.84C1224.44 124.518 1224.08 124.422 1223.74 124.23C1223.42 124.026 1223.15 123.762 1222.95 123.438C1222.76 123.102 1222.66 122.736 1222.66 122.34V120.738C1222.66 120.342 1222.76 119.982 1222.95 119.658C1223.15 119.322 1223.42 119.058 1223.74 118.866C1224.08 118.662 1224.44 118.56 1224.84 118.56H1231.1C1231.51 118.56 1231.88 118.662 1232.2 118.866C1232.54 119.058 1232.8 119.322 1232.99 119.658C1233.2 119.982 1233.3 120.342 1233.3 120.738V120.882H1231.8V120.738C1231.8 120.546 1231.73 120.384 1231.59 120.252C1231.46 120.108 1231.29 120.036 1231.1 120.036H1224.84C1224.65 120.036 1224.48 120.108 1224.33 120.252C1224.2 120.384 1224.14 120.546 1224.14 120.738V122.34C1224.14 122.532 1224.2 122.7 1224.33 122.844C1224.48 122.976 1224.65 123.042 1224.84 123.042H1231.1C1231.51 123.042 1231.88 123.144 1232.2 123.348C1232.54 123.54 1232.8 123.804 1232.99 124.14C1233.2 124.464 1233.3 124.824 1233.3 125.22V126.822C1233.3 127.218 1233.2 127.584 1232.99 127.92C1232.8 128.244 1232.54 128.508 1232.2 128.712C1231.88 128.904 1231.51 129 1231.1 129H1224.84Z" fill="white"/>
<defs>
<linearGradient id="paint0_linear_38_219" x1="0.499981" y1="49.1435" x2="330.041" y2="692.43" gradientUnits="userSpaceOnUse">
<stop offset="0.0250287" stop-color="#FF00E3"/>
<stop offset="0.33326" stop-color="#CE0DB9" stop-opacity="0.788449"/>
<stop offset="0.5" stop-opacity="0.33"/>
<stop offset="0.7443" stop-color="#0944C9" stop-opacity="0.683417"/>
<stop offset="1" stop-color="#004FFF"/>
</linearGradient>
<linearGradient id="paint1_linear_38_219" x1="321" y1="55" x2="321" y2="107" gradientUnits="userSpaceOnUse">
<stop stop-color="#FF00E3"/>
<stop offset="1" stop-color="#004FFF"/>
</linearGradient>
<linearGradient id="paint2_linear_38_219" x1="637" y1="55" x2="637" y2="107" gradientUnits="userSpaceOnUse">
<stop stop-color="#FF00E3"/>
<stop offset="1" stop-color="#004FFF"/>
</linearGradient>
<linearGradient id="paint3_linear_38_219" x1="910.5" y1="55" x2="910.5" y2="107" gradientUnits="userSpaceOnUse">
<stop stop-color="#FF00E3"/>
<stop offset="1" stop-color="#004FFF"/>
</linearGradient>
<linearGradient id="paint4_linear_38_219" x1="1164" y1="55" x2="1164" y2="107" gradientUnits="userSpaceOnUse">
<stop stop-color="#FF00E3"/>
<stop offset="1" stop-color="#004FFF"/>
</linearGradient>
</defs>
</svg>
