<svg width="220" height="37" viewBox="0 0 220 37" fill="none" xmlns="http://www.w3.org/2000/svg">
<rect x="0.5" y="1.18005" width="219" height="35" rx="0.5" stroke="url(#paint0_linear_57_75)"/>
<path d="M85.9475 16.2902C85.8953 15.827 85.68 15.4681 85.3015 15.2136C84.9231 14.9558 84.4467 14.827 83.8725 14.827C83.4614 14.827 83.1058 14.8922 82.8056 15.0227C82.5055 15.15 82.2722 15.3261 82.1058 15.5513C81.9427 15.7731 81.8611 16.026 81.8611 16.3098C81.8611 16.548 81.9166 16.7535 82.0275 16.9265C82.1417 17.0994 82.2901 17.2446 82.4728 17.362C82.6588 17.4762 82.8578 17.5725 83.0699 17.6508C83.282 17.7258 83.4859 17.7878 83.6816 17.8367L84.6604 18.0912C84.9801 18.1695 85.308 18.2755 85.6441 18.4093C85.9801 18.5431 86.2917 18.7193 86.5788 18.9379C86.8659 19.1564 87.0976 19.4272 87.2738 19.7502C87.4532 20.0732 87.5429 20.4599 87.5429 20.9101C87.5429 21.4778 87.3961 21.9819 87.1025 22.4223C86.8121 22.8628 86.3896 23.2102 85.835 23.4647C85.2836 23.7192 84.6164 23.8464 83.8333 23.8464C83.0829 23.8464 82.4337 23.7274 81.8856 23.4892C81.3374 23.251 80.9084 22.9133 80.5985 22.4762C80.2885 22.0357 80.1172 21.5137 80.0846 20.9101H81.6017C81.6311 21.2723 81.7485 21.574 81.9541 21.8155C82.1629 22.0536 82.4288 22.2315 82.7518 22.3489C83.078 22.4631 83.4353 22.5202 83.8236 22.5202C84.251 22.5202 84.631 22.4533 84.9638 22.3195C85.2999 22.1825 85.5642 21.9933 85.7566 21.7519C85.9491 21.5072 86.0454 21.2217 86.0454 20.8954C86.0454 20.5985 85.9606 20.3555 85.7909 20.1662C85.6245 19.977 85.3978 19.8204 85.1107 19.6964C84.8268 19.5724 84.5054 19.4631 84.1466 19.3685L82.9622 19.0455C82.1596 18.8269 81.5234 18.5056 81.0536 18.0814C80.587 17.6573 80.3538 17.0961 80.3538 16.3979C80.3538 15.8204 80.5104 15.3164 80.8236 14.8857C81.1368 14.455 81.5609 14.1206 82.096 13.8824C82.6311 13.641 83.2347 13.5203 83.9067 13.5203C84.5854 13.5203 85.1841 13.6394 85.7028 13.8776C86.2248 14.1157 86.6359 14.4436 86.9361 14.8612C87.2362 15.2756 87.3928 15.7519 87.4059 16.2902H85.9475ZM92.7415 16.163V17.3375H88.6355V16.163H92.7415ZM89.7366 14.362H91.1999V21.4729C91.1999 21.7567 91.2423 21.9704 91.3271 22.114C91.412 22.2543 91.5213 22.3505 91.655 22.4027C91.7921 22.4517 91.9405 22.4762 92.1004 22.4762C92.2178 22.4762 92.3206 22.468 92.4087 22.4517C92.4968 22.4354 92.5653 22.4223 92.6142 22.4125L92.8785 23.6213C92.7937 23.654 92.673 23.6866 92.5164 23.7192C92.3598 23.7551 92.164 23.7747 91.9291 23.7779C91.5441 23.7845 91.1852 23.7159 90.8524 23.5724C90.5196 23.4288 90.2505 23.207 90.0449 22.9068C89.8394 22.6067 89.7366 22.2298 89.7366 21.7763V14.362ZM96.5477 23.8464C96.0714 23.8464 95.6407 23.7584 95.2557 23.5822C94.8707 23.4027 94.5657 23.1434 94.3406 22.804C94.1187 22.4647 94.0078 22.0488 94.0078 21.5561C94.0078 21.132 94.0893 20.7829 94.2525 20.5088C94.4156 20.2347 94.6358 20.0178 94.9132 19.8579C95.1905 19.698 95.5004 19.5773 95.843 19.4958C96.1856 19.4142 96.5347 19.3522 96.8903 19.3098C97.3405 19.2576 97.7059 19.2152 97.9865 19.1826C98.2671 19.1467 98.471 19.0896 98.5983 19.0113C98.7255 18.933 98.7891 18.8057 98.7891 18.6295V18.5953C98.7891 18.1679 98.6684 17.8367 98.427 17.6018C98.1888 17.3669 97.8332 17.2495 97.3601 17.2495C96.8675 17.2495 96.4792 17.3588 96.1954 17.5773C95.9148 17.7927 95.7206 18.0325 95.613 18.2968L94.2378 17.9835C94.4009 17.5268 94.6391 17.1581 94.9523 16.8775C95.2688 16.5937 95.6326 16.3881 96.0436 16.2609C96.4547 16.1304 96.887 16.0651 97.3405 16.0651C97.6407 16.0651 97.9588 16.101 98.2948 16.1728C98.6342 16.2413 98.9506 16.3686 99.2443 16.5545C99.5412 16.7405 99.7842 17.0064 99.9735 17.3522C100.163 17.6948 100.257 18.1401 100.257 18.6883V23.6801H98.8283V22.6523H98.7696C98.6749 22.8416 98.533 23.0275 98.3438 23.2102C98.1546 23.3929 97.9115 23.5447 97.6146 23.6654C97.3177 23.7861 96.9621 23.8464 96.5477 23.8464ZM96.8658 22.6719C97.2704 22.6719 97.6162 22.592 97.9033 22.4321C98.1937 22.2722 98.4139 22.0634 98.564 21.8057C98.7174 21.5447 98.794 21.2657 98.794 20.9688V19.9998C98.7418 20.052 98.6407 20.101 98.4906 20.1467C98.3438 20.1891 98.1758 20.2266 97.9865 20.2592C97.7973 20.2886 97.613 20.3163 97.4335 20.3424C97.2541 20.3652 97.104 20.3848 96.9833 20.4011C96.6994 20.437 96.4401 20.4974 96.2051 20.5822C95.9735 20.667 95.7875 20.7894 95.6472 20.9493C95.5102 21.1059 95.4417 21.3147 95.4417 21.5757C95.4417 21.9378 95.5755 22.2119 95.843 22.3978C96.1105 22.5806 96.4515 22.6719 96.8658 22.6719ZM103.552 21.1303L103.542 19.344H103.797L106.792 16.163H108.544L105.128 19.7845H104.898L103.552 21.1303ZM102.206 23.6801V13.6573H103.67V23.6801H102.206ZM106.953 23.6801L104.262 20.1075L105.27 19.0847L108.749 23.6801H106.953ZM112.808 23.8318C112.067 23.8318 111.429 23.6735 110.894 23.3571C110.362 23.0373 109.951 22.5887 109.661 22.0112C109.374 21.4305 109.23 20.7502 109.23 19.9705C109.23 19.2005 109.374 18.5219 109.661 17.9346C109.951 17.3473 110.356 16.8889 110.875 16.5594C111.397 16.2299 112.007 16.0651 112.705 16.0651C113.129 16.0651 113.54 16.1353 113.938 16.2756C114.336 16.4159 114.694 16.6361 115.01 16.9362C115.326 17.2364 115.576 17.6263 115.759 18.1059C115.941 18.5822 116.033 19.1613 116.033 19.8432V20.362H110.057V19.2657H114.599C114.599 18.8808 114.521 18.5398 114.364 18.2429C114.207 17.9428 113.987 17.7062 113.703 17.5333C113.423 17.3604 113.093 17.2739 112.715 17.2739C112.304 17.2739 111.945 17.3751 111.638 17.5773C111.335 17.7764 111.1 18.0374 110.933 18.3604C110.77 18.6801 110.689 19.0276 110.689 19.4028V20.2592C110.689 20.7617 110.777 21.1891 110.953 21.5414C111.132 21.8938 111.382 22.1629 111.702 22.3489C112.021 22.5316 112.395 22.623 112.822 22.623C113.1 22.623 113.353 22.5838 113.581 22.5055C113.809 22.424 114.007 22.3032 114.173 22.1434C114.34 21.9835 114.467 21.7861 114.555 21.5512L115.94 21.8008C115.829 22.2086 115.63 22.5659 115.343 22.8726C115.059 23.176 114.702 23.4125 114.271 23.5822C113.844 23.7486 113.356 23.8318 112.808 23.8318Z" fill="#EFEFE5" fill-opacity="0.6"/>
<g opacity="0.6" clip-path="url(#clip0_57_75)">
<g clip-path="url(#clip1_57_75)">
<g clip-path="url(#clip2_57_75)">
<mask id="mask0_57_75" style="mask-type:luminance" maskUnits="userSpaceOnUse" x="129" y="13" width="7" height="12">
<path d="M135.373 13.8235H129.105V24.4901H135.373V13.8235Z" fill="white"/>
</mask>
<g mask="url(#mask0_57_75)">
<path d="M129.907 24.4901C129.663 24.3967 129.505 24.1955 129.327 24.0193C129.032 23.7261 129.032 23.3927 129.326 23.0984C130.614 21.8098 131.902 20.521 133.193 19.2348C133.26 19.1683 133.252 19.139 133.191 19.0768C131.9 17.7904 130.612 16.5016 129.324 15.213C129.096 14.9849 129.038 14.7121 129.196 14.4704C129.34 14.2494 129.532 14.0621 129.751 13.9139C129.961 13.7713 130.22 13.8039 130.417 13.966C130.446 13.9901 130.475 14.0159 130.502 14.0428C132.053 15.5937 133.604 17.1445 135.155 18.6956C135.386 18.9272 135.435 19.1968 135.293 19.4496C135.257 19.5137 135.206 19.5663 135.155 19.6179C133.604 21.169 132.053 22.7193 130.503 24.2718C130.398 24.3772 130.277 24.4475 130.137 24.4904C130.06 24.4901 129.984 24.4901 129.907 24.4901Z" fill="white"/>
</g>
</g>
</g>
</g>
<defs>
<linearGradient id="paint0_linear_57_75" x1="-2.95114e-06" y1="9.84672" x2="67.7028" y2="119.541" gradientUnits="userSpaceOnUse">
<stop offset="0.0250287" stop-color="#FF00E3"/>
<stop offset="0.33326" stop-color="#CE0DB9" stop-opacity="0.788449"/>
<stop offset="0.5" stop-opacity="0.33"/>
<stop offset="0.7443" stop-color="#0944C9" stop-opacity="0.683417"/>
<stop offset="1" stop-color="#004FFF"/>
</linearGradient>
<clipPath id="clip0_57_75">
<rect width="16" height="12" fill="white" transform="translate(124.63 12.6801)"/>
</clipPath>
<clipPath id="clip1_57_75">
<rect width="16" height="12" fill="white" transform="translate(124.63 12.6801)"/>
</clipPath>
<clipPath id="clip2_57_75">
<rect width="8.57143" height="12" fill="white" transform="translate(128.344 12.6801)"/>
</clipPath>
</defs>
</svg>
