<svg width="19" height="18" viewBox="0 0 19 18" fill="none" xmlns="http://www.w3.org/2000/svg">
<path d="M17.2917 1.91666H1.70833C1.31713 1.91666 1 2.23379 1 2.62499V15.375C1 15.7662 1.31713 16.0833 1.70833 16.0833H17.2917C17.6829 16.0833 18 15.7662 18 15.375V2.62499C18 2.23379 17.6829 1.91666 17.2917 1.91666Z" stroke="#CECBCB" stroke-width="2" stroke-linecap="round" stroke-linejoin="round"/>
<path d="M1 15.375L5.45744 9.18669C5.52321 9.12749 5.6013 9.08053 5.68724 9.0485C5.77318 9.01646 5.86528 8.99997 5.9583 8.99997C6.05132 8.99997 6.14343 9.01646 6.22937 9.0485C6.31531 9.08053 6.3934 9.12749 6.45917 9.18669L10.4158 12.7476C10.4815 12.8068 10.5596 12.8538 10.6456 12.8858C10.7315 12.9179 10.8236 12.9343 10.9166 12.9343C11.0097 12.9343 11.1018 12.9179 11.1877 12.8858C11.2736 12.8538 11.3517 12.8068 11.4175 12.7476L13.2491 11.0992C13.3149 11.04 13.393 10.993 13.4789 10.961C13.5648 10.929 13.6569 10.9125 13.75 10.9125C13.843 10.9125 13.9351 10.929 14.021 10.961C14.107 10.993 14.1851 11.04 14.2508 11.0992L18 15.375" fill="#CECBCB"/>
<path d="M1 15.375L5.45744 9.18669C5.52321 9.12749 5.6013 9.08053 5.68724 9.0485C5.77318 9.01646 5.86528 8.99997 5.9583 8.99997C6.05132 8.99997 6.14343 9.01646 6.22937 9.0485C6.31531 9.08053 6.3934 9.12749 6.45917 9.18669L10.4158 12.7476C10.4815 12.8068 10.5596 12.8538 10.6456 12.8858C10.7315 12.9179 10.8236 12.9343 10.9166 12.9343C11.0097 12.9343 11.1018 12.9179 11.1877 12.8858C11.2736 12.8538 11.3517 12.8068 11.4175 12.7476L13.2491 11.0992C13.3149 11.04 13.393 10.993 13.4789 10.961C13.5648 10.929 13.657 10.9125 13.75 10.9125C13.843 10.9125 13.9351 10.929 14.021 10.961C14.107 10.993 14.1851 11.04 14.2508 11.0992L18 15.375H1Z" stroke="#CECBCB" stroke-width="2" stroke-linecap="round" stroke-linejoin="round"/>
<path d="M12.9795 6.52084C12.9795 7.07313 12.5318 7.52084 11.9795 7.52084C11.4272 7.52084 10.9795 7.07313 10.9795 6.52084C10.9795 5.96856 11.4272 5.52084 11.9795 5.52084C12.5318 5.52084 12.9795 5.96856 12.9795 6.52084Z" fill="#CECBCB" stroke="#CECBCB" stroke-width="0.125"/>
</svg>
