<svg width="19" height="20" viewBox="0 0 19 20" fill="none" xmlns="http://www.w3.org/2000/svg">
<path d="M17.9201 8.18019L10.2101 0.300193C10.1172 0.206464 10.0066 0.13207 9.88469 0.0813015C9.76283 0.0305328 9.63213 0.00439453 9.50012 0.00439453C9.3681 0.00439453 9.2374 0.0305328 9.11554 0.0813015C8.99368 0.13207 8.88308 0.206464 8.79012 0.300193L1.08012 8.19019C0.893552 8.37826 0.74621 8.60152 0.646643 8.847C0.547077 9.09248 0.49727 9.3553 0.500115 9.62019V18.0002C0.499341 18.5121 0.694889 19.0048 1.04649 19.3769C1.39809 19.749 1.87898 19.972 2.39012 20.0002H16.6101C17.1213 19.972 17.6021 19.749 17.9537 19.3769C18.3053 19.0048 18.5009 18.5121 18.5001 18.0002V9.62019C18.5009 9.08313 18.2929 8.56678 17.9201 8.18019ZM7.50012 18.0002V12.0002H11.5001V18.0002H7.50012ZM16.5001 18.0002H13.5001V11.0002C13.5001 10.735 13.3948 10.4806 13.2072 10.2931C13.0197 10.1055 12.7653 10.0002 12.5001 10.0002H6.50012C6.2349 10.0002 5.98055 10.1055 5.79301 10.2931C5.60547 10.4806 5.50012 10.735 5.50012 11.0002V18.0002H2.50012V9.58019L9.50012 2.43019L16.5001 9.62019V18.0002Z" fill="white"/>
</svg>
