<svg width="17" height="18" viewBox="0 0 17 18" fill="none" xmlns="http://www.w3.org/2000/svg">
<path d="M16.5738 7.62918C16.4208 7.91251 16.0331 8.43335 14.9927 9.09168C14.7615 9.23335 14.4929 9.37501 14.1834 9.51668C13.9522 9.61251 13.9148 9.89585 13.874 10.0833V10.3208V12.4458C15.4143 11.7833 16.4956 10.8875 16.8798 9.80001C16.958 9.56251 16.9954 9.32918 16.9954 9.04585C17.0362 8.52918 16.8424 8.05418 16.5738 7.62918Z" fill="#E1E1E1"/>
<path d="M12.1386 9.99165C11.2919 10.1791 10.4045 10.3208 9.44222 10.3708V11.2208C9.44222 11.6916 9.17361 12.1166 8.86419 12.1166C8.55478 12.1166 8.28616 11.7375 8.28616 11.2208V10.4166C4.78058 10.3708 1.81223 9.18748 0.693576 7.58331C0.424963 8.00831 0.268555 8.43331 0.268555 8.90415C0.268555 9.14165 0.305957 9.37498 0.384161 9.65831C1.0778 11.6416 4.50857 13.1541 8.63298 13.1541C10.0985 13.1541 11.4449 12.9666 12.6418 12.6333V10.7458C12.601 10.0375 12.1794 9.99165 12.1386 9.99165Z" fill="#E1E1E1"/>
<path d="M8.40183 0.5C3.73679 0.5 0 2.43333 0 4.79583C0 5.03333 0.0374019 5.31667 0.115606 5.55C0.809241 7.4875 4.08361 9 8.09241 9.04583V9C8.09241 8.15 8.05501 6.97083 7.62999 6.45C7.36137 6.12083 6.32092 5.64583 5.8585 5.31667C5.70549 5.22083 5.54908 5.12917 5.43348 5.03333C5.39607 4.9875 5.35527 4.9375 5.31787 4.89167C5.12406 4.65417 5.00845 4.42083 5.00845 4.1375C5.00845 3.14583 6.66434 2.34167 8.70784 2.34167C10.7513 2.34167 12.4106 3.14583 12.4106 4.1375C12.4106 4.65833 11.9856 5.08333 11.3328 5.4125C11.0642 5.6 9.9081 5.93333 9.59869 6.64167C9.33007 7.25417 9.33007 8.2 9.33007 9.05C13.0295 8.8625 16.0352 7.39583 16.654 5.55417C16.7322 5.31667 16.7696 5.08333 16.7696 4.8C16.7663 2.43333 13.0261 0.5 8.40183 0.5Z" fill="#E1E1E1"/>
<path d="M13.6041 13.675V15.1375C13.6041 15.5167 13.3355 15.8458 13.0261 15.8458C12.7166 15.8458 12.448 15.5167 12.448 15.1375V14.1C11.2546 14.4292 9.8673 14.6208 8.43923 14.6208C4.81804 14.6208 1.73409 13.4375 0.540627 11.8333C0.19381 12.2583 0 12.7792 0 13.25C0 15.5625 3.73679 17.5 8.40183 17.5C13.0261 17.5 16.8037 15.6125 16.8037 13.25C16.8037 12.7292 16.6098 12.2583 16.3038 11.7875C15.7258 12.5417 14.7976 13.2042 13.6041 13.675Z" fill="#E1E1E1"/>
</svg>
