<svg width="22" height="22" viewBox="0 0 22 22" fill="none" xmlns="http://www.w3.org/2000/svg">
<path d="M20.1667 7.79165C20.1667 11.0825 17.4992 13.75 14.2083 13.75C14.0525 13.75 13.8875 13.7408 13.7317 13.7317C13.5025 10.8258 11.1742 8.49747 8.26832 8.2683C8.25916 8.11247 8.25 7.94748 8.25 7.79165C8.25 4.50081 10.9175 1.83331 14.2083 1.83331C17.4992 1.83331 20.1667 4.50081 20.1667 7.79165Z" stroke="#E1E1E1" stroke-width="1.5" stroke-linecap="round" stroke-linejoin="round"/>
<path d="M13.7497 14.2083C13.7497 17.4992 11.0822 20.1667 7.79134 20.1667C4.50051 20.1667 1.83301 17.4992 1.83301 14.2083C1.83301 10.9175 4.50051 8.25 7.79134 8.25C7.94717 8.25 8.11216 8.25916 8.268 8.26832C11.1738 8.49749 13.5022 10.8258 13.7314 13.7317C13.7405 13.8875 13.7497 14.0525 13.7497 14.2083Z" stroke="#E1E1E1" stroke-width="1.5" stroke-linecap="round" stroke-linejoin="round"/>
<path d="M5.12384 1.83331H2.74967C2.24551 1.83331 1.83301 2.24581 1.83301 2.74998V5.12414C1.83301 5.93998 2.823 6.35247 3.4005 5.77497L5.77466 3.40081C6.343 2.82331 5.93967 1.83331 5.12384 1.83331Z" stroke="#E1E1E1" stroke-width="1.5" stroke-linecap="round" stroke-linejoin="round"/>
<path d="M16.8762 20.1667H19.2504C19.7546 20.1667 20.1671 19.7542 20.1671 19.25V16.8758C20.1671 16.06 19.1771 15.6475 18.5996 16.225L16.2254 18.5992C15.6571 19.1767 16.0604 20.1667 16.8762 20.1667Z" stroke="#E1E1E1" stroke-width="1.5" stroke-linecap="round" stroke-linejoin="round"/>
</svg>
