<svg width="47" height="44" viewBox="0 0 47 44" fill="none" xmlns="http://www.w3.org/2000/svg">
<g clip-path="url(#clip0_105_9556)">
<rect x="0.700195" width="45.4" height="44" rx="22" fill="url(#paint0_linear_105_9556)"/>
<g filter="url(#filter0_d_105_9556)">
<path d="M14.5723 24.0454L23.1408 35.9433V29.0964L14.5723 24.0454Z" fill="white"/>
<path d="M23.1396 36.0556L31.5961 24.0454L23.1396 29.1525V36.0556Z" fill="#DFFFDA"/>
<path d="M23.085 20.4988V27.3233L28.1924 23.4546L23.085 20.4988Z" fill="#DFFFDA"/>
<path d="M23.0847 8.55518V18.6572L14.5723 22.5858L23.0847 8.55518Z" fill="white"/>
<path d="M31.5975 22.4735L23.085 18.6572V8.55518L31.5975 22.4735Z" fill="#DFFFDA"/>
<path d="M17.9775 23.5415L23.085 27.3233L23.0516 20.4988L17.9775 23.5415Z" fill="white"/>
</g>
</g>
<defs>
<filter id="filter0_d_105_9556" x="10.5723" y="5.55518" width="29.0254" height="39.5005" filterUnits="userSpaceOnUse" color-interpolation-filters="sRGB">
<feFlood flood-opacity="0" result="BackgroundImageFix"/>
<feColorMatrix in="SourceAlpha" type="matrix" values="0 0 0 0 0 0 0 0 0 0 0 0 0 0 0 0 0 0 127 0" result="hardAlpha"/>
<feOffset dx="2" dy="3"/>
<feGaussianBlur stdDeviation="3"/>
<feComposite in2="hardAlpha" operator="out"/>
<feColorMatrix type="matrix" values="0 0 0 0 0.0748611 0 0 0 0 0.366667 0 0 0 0 0.11357 0 0 0 1 0"/>
<feBlend mode="normal" in2="BackgroundImageFix" result="effect1_dropShadow_105_9556"/>
<feBlend mode="normal" in="SourceGraphic" in2="effect1_dropShadow_105_9556" result="shape"/>
</filter>
<linearGradient id="paint0_linear_105_9556" x1="23.4002" y1="2.75" x2="48.7681" y2="50.35" gradientUnits="userSpaceOnUse">
<stop stop-color="#1CAC70"/>
<stop offset="1" stop-color="#EDDC46"/>
</linearGradient>
<clipPath id="clip0_105_9556">
<rect x="0.700195" width="45.4" height="44" rx="22" fill="white"/>
</clipPath>
</defs>
</svg>
